<svg width="1920" height="549" viewBox="0 0 1920 549" fill="none" xmlns="http://www.w3.org/2000/svg">
<g clip-path="url(#clip0)">
<path d="M481 104.618L482.77 110.064L482.882 110.41H483.245H488.972L484.339 113.776L484.045 113.989L484.157 114.335L485.927 119.781L481.294 116.415L481 116.202L480.706 116.415L476.073 119.781L477.843 114.335L477.955 113.989L477.661 113.776L473.028 110.41H478.755H479.118L479.23 110.064L481 104.618Z" stroke="#111111" stroke-opacity="0.25"/>
<path d="M1353.9 337.052L1351.94 331.67L1351.82 331.329L1351.45 331.341L1345.73 331.539L1350.24 328.015L1350.53 327.792L1350.4 327.45L1348.45 322.068L1353.19 325.272L1353.5 325.475L1353.78 325.252L1358.3 321.728L1356.72 327.232L1356.62 327.581L1356.92 327.784L1361.66 330.988L1355.94 331.186L1355.58 331.199L1355.48 331.548L1353.9 337.052Z" stroke="#111111" stroke-opacity="0.25"/>
<path d="M1411.49 435.205L1410.43 440.832L1410.36 441.189L1410.68 441.364L1415.7 444.114L1410.02 444.842L1409.66 444.888L1409.6 445.245L1408.53 450.872L1406.09 445.695L1405.93 445.366L1405.57 445.412L1399.89 446.14L1404.06 442.213L1404.32 441.964L1404.17 441.635L1401.72 436.458L1406.74 439.208L1407.06 439.382L1407.32 439.133L1411.49 435.205Z" stroke="#111111" stroke-opacity="0.25"/>
<path d="M412.528 38.8404L413.396 33.18L413.451 32.8209L413.126 32.6576L408.011 30.0832L413.663 29.1592L414.021 29.1006L414.076 28.7415L414.944 23.0811L417.569 28.1705L417.736 28.4933L418.094 28.4347L423.746 27.5107L419.717 31.5801L419.461 31.8383L419.627 32.1611L422.253 37.2506L417.137 34.6762L416.813 34.5129L416.557 34.771L412.528 38.8404Z" stroke="#111111" stroke-opacity="0.25"/>
<path d="M1703.37 93.0994L1709.08 92.6672L1709.44 92.6397L1709.53 92.2868L1710.88 86.7224L1713.05 92.0197L1713.19 92.3557L1713.55 92.3283L1719.26 91.8961L1714.9 95.6021L1714.62 95.8372L1714.76 96.1733L1716.94 101.47L1712.06 98.4637L1711.75 98.273L1711.48 98.5081L1707.11 102.214L1708.46 96.6498L1708.55 96.2968L1708.24 96.1061L1703.37 93.0994Z" stroke="#111111" stroke-opacity="0.25"/>
<path d="M132.659 390.836L126.967 391.465L126.606 391.505L126.532 391.861L125.372 397.469L123.015 392.25L122.865 391.919L122.504 391.959L116.812 392.588L121.047 388.733L121.316 388.489L121.166 388.158L118.808 382.939L123.783 385.775L124.099 385.955L124.367 385.711L128.602 381.856L127.442 387.464L127.368 387.82L127.684 387.999L132.659 390.836Z" stroke="#111111" stroke-opacity="0.25"/>
<path d="M22.0626 359.604L21.8434 353.882L21.8295 353.519L21.48 353.42L15.9699 351.86L21.3445 349.883L21.6854 349.758L21.6715 349.395L21.4523 343.672L24.9932 348.173L25.2178 348.458L25.5587 348.333L30.9333 346.356L27.7471 351.115L27.545 351.416L27.7696 351.702L31.3105 356.203L25.8004 354.643L25.4509 354.544L25.2488 354.846L22.0626 359.604Z" stroke="#111111" stroke-opacity="0.25"/>
<path d="M1803.74 66.3473L1804.16 72.0587L1804.18 72.421L1804.54 72.5078L1810.1 73.8762L1804.79 76.0376L1804.46 76.1748L1804.48 76.5371L1804.9 82.2485L1801.21 77.8729L1800.97 77.5954L1800.64 77.7325L1795.33 79.894L1798.35 75.0283L1798.54 74.7196L1798.31 74.4421L1794.62 70.0666L1800.18 71.4349L1800.53 71.5217L1800.72 71.213L1803.74 66.3473Z" stroke="#111111" stroke-opacity="0.25"/>
<path d="M274 221.618L275.77 227.064L275.882 227.41H276.245H281.972L277.339 230.776L277.045 230.989L277.157 231.335L278.927 236.781L274.294 233.415L274 233.202L273.706 233.415L269.073 236.781L270.843 231.335L270.955 230.989L270.661 230.776L266.028 227.41H271.755H272.118L272.23 227.064L274 221.618Z" stroke="#111111" stroke-opacity="0.25"/>
<path d="M1556.73 212.962L1554.77 207.58L1554.65 207.239L1554.28 207.251L1548.56 207.45L1553.07 203.925L1553.36 203.702L1553.24 203.36L1551.28 197.978L1556.02 201.182L1556.33 201.385L1556.61 201.162L1561.13 197.638L1559.55 203.142L1559.45 203.491L1559.75 203.694L1564.49 206.898L1558.77 207.096L1558.41 207.109L1558.31 207.458L1556.73 212.962Z" stroke="#111111" stroke-opacity="0.25"/>
<path d="M1173.74 438.439L1172.67 444.066L1172.61 444.423L1172.93 444.597L1177.95 447.347L1172.27 448.075L1171.91 448.121L1171.84 448.478L1170.78 454.105L1168.33 448.928L1168.17 448.6L1167.81 448.646L1162.13 449.374L1166.3 445.446L1166.57 445.197L1166.41 444.869L1163.96 439.691L1168.99 442.441L1169.3 442.616L1169.57 442.366L1173.74 438.439Z" stroke="#111111" stroke-opacity="0.25"/>
<path d="M650.029 27.3873L650.897 21.7268L650.952 21.3678L650.627 21.2044L645.512 18.6301L651.164 17.7061L651.522 17.6475L651.577 17.2884L652.445 11.6279L655.07 16.7173L655.237 17.0402L655.595 16.9816L661.247 16.0576L657.218 20.127L656.962 20.3852L657.129 20.708L659.754 25.7974L654.638 23.2231L654.314 23.0597L654.058 23.3179L650.029 27.3873Z" stroke="#111111" stroke-opacity="0.25"/>
<path d="M1768.13 321.887L1773.84 321.455L1774.2 321.428L1774.28 321.075L1775.64 315.511L1777.81 320.808L1777.95 321.144L1778.31 321.116L1784.02 320.684L1779.66 324.39L1779.38 324.625L1779.52 324.961L1781.69 330.259L1776.82 327.252L1776.51 327.061L1776.23 327.296L1771.87 331.002L1773.22 325.438L1773.31 325.085L1773 324.894L1768.13 321.887Z" stroke="#111111" stroke-opacity="0.25"/>
<path d="M60.0268 164.424L54.3349 165.053L53.9739 165.093L53.9003 165.449L52.74 171.057L50.3825 165.838L50.2329 165.507L49.8719 165.547L44.18 166.176L48.4149 162.321L48.6835 162.077L48.5339 161.746L46.1764 156.527L51.1512 159.363L51.4668 159.543L51.7355 159.299L55.9703 155.444L54.8101 161.052L54.7365 161.407L55.052 161.587L60.0268 164.424Z" stroke="#111111" stroke-opacity="0.25"/>
<path d="M253.104 303.411L252.885 297.688L252.871 297.325L252.521 297.226L247.011 295.667L252.386 293.69L252.727 293.564L252.713 293.201L252.494 287.479L256.034 291.98L256.259 292.265L256.6 292.14L261.975 290.163L258.788 294.921L258.586 295.223L258.811 295.509L262.352 300.009L256.842 298.449L256.492 298.351L256.29 298.652L253.104 303.411Z" stroke="#111111" stroke-opacity="0.25"/>
<path d="M1574.78 130.496L1575.2 136.207L1575.22 136.569L1575.58 136.656L1581.14 138.025L1575.84 140.186L1575.5 140.323L1575.53 140.686L1575.94 146.397L1572.25 142.021L1572.01 141.744L1571.68 141.881L1566.37 144.042L1569.39 139.177L1569.59 138.868L1569.35 138.591L1565.66 134.215L1571.22 135.583L1571.57 135.67L1571.76 135.361L1574.78 130.496Z" stroke="#111111" stroke-opacity="0.25"/>
<path d="M878 1.61804L879.77 7.06434L879.882 7.40983H880.245H885.972L881.339 10.7758L881.045 10.9894L881.157 11.3348L882.927 16.7812L878.294 13.4152L878 13.2016L877.706 13.4152L873.073 16.7812L874.843 11.3348L874.955 10.9894L874.661 10.7758L870.028 7.40983H875.755H876.118L876.23 7.06434L878 1.61804Z" stroke="#111111" stroke-opacity="0.25"/>
<path d="M960.696 453.719L958.739 448.337L958.615 447.996L958.252 448.008L952.529 448.206L957.042 444.682L957.329 444.459L957.204 444.117L955.248 438.735L959.994 441.939L960.295 442.142L960.582 441.919L965.095 438.395L963.515 443.899L963.415 444.248L963.716 444.451L968.462 447.655L962.739 447.853L962.376 447.866L962.276 448.215L960.696 453.719Z" stroke="#111111" stroke-opacity="0.25"/>
<path d="M1337 350.618L1338.77 356.064L1338.88 356.41H1339.25H1344.97L1340.34 359.776L1340.04 359.989L1340.16 360.335L1341.93 365.781L1337.29 362.415L1337 362.202L1336.71 362.415L1332.07 365.781L1333.84 360.335L1333.96 359.989L1333.66 359.776L1329.03 356.41H1334.75H1335.12L1335.23 356.064L1337 350.618Z" stroke="#111111" stroke-opacity="0.25"/>
<path d="M489.901 120.801L487.944 115.419L487.82 115.078L487.457 115.09L481.734 115.288L486.247 111.764L486.534 111.541L486.41 111.199L484.453 105.817L489.199 109.021L489.5 109.224L489.787 109.001L494.3 105.477L492.72 110.981L492.62 111.33L492.921 111.533L497.668 114.737L491.945 114.935L491.581 114.948L491.481 115.297L489.901 120.801Z" stroke="#111111" stroke-opacity="0.25"/>
<circle cx="648" cy="73" r="10" fill="#C4C4C4" fill-opacity="0.25"/>
<circle cx="1188.09" cy="374.426" r="10" transform="rotate(178.018 1188.09 374.426)" fill="#C4C4C4" fill-opacity="0.25"/>
<circle cx="362" cy="167" r="10" fill="#C4C4C4" fill-opacity="0.25"/>
<circle cx="1470.67" cy="270.592" r="10" transform="rotate(178.018 1470.67 270.592)" fill="#C4C4C4" fill-opacity="0.25"/>
<circle cx="1277.15" cy="432.784" r="10" transform="rotate(28.6967 1277.15 432.784)" fill="#C4C4C4" fill-opacity="0.25"/>
<circle cx="546.869" cy="36.6149" r="10" transform="rotate(-153.285 546.869 36.6149)" fill="#C4C4C4" fill-opacity="0.25"/>
<circle cx="1735.85" cy="223.472" r="10" transform="rotate(-76.3284 1735.85 223.472)" fill="#C4C4C4" fill-opacity="0.25"/>
<circle cx="95.682" cy="261.665" r="10" transform="rotate(101.69 95.682 261.665)" fill="#C4C4C4" fill-opacity="0.25"/>
<circle cx="153.555" cy="331.994" r="10" transform="rotate(-164.194 153.555 331.994)" fill="#C4C4C4" fill-opacity="0.25"/>
<circle cx="1673.28" cy="98.4875" r="10" transform="rotate(13.8243 1673.28 98.4875)" fill="#C4C4C4" fill-opacity="0.25"/>
<circle cx="94" cy="41" r="10" fill="#C4C4C4" fill-opacity="0.25"/>
<circle cx="1742.86" cy="387.247" r="10" transform="rotate(178.018 1742.86 387.247)" fill="#C4C4C4" fill-opacity="0.25"/>
<circle cx="1102.57" cy="193.573" r="10" transform="rotate(28.6967 1102.57 193.573)" fill="#C4C4C4" fill-opacity="0.25"/>
<circle cx="729.618" cy="269.645" r="10" transform="rotate(-153.285 729.618 269.645)" fill="#C4C4C4" fill-opacity="0.25"/>
<circle cx="1550.08" cy="454.097" r="10" transform="rotate(-76.3284 1550.08 454.097)" fill="#C4C4C4" fill-opacity="0.25"/>
<circle cx="273.369" cy="24.7538" r="10" transform="rotate(101.69 273.369 24.7538)" fill="#C4C4C4" fill-opacity="0.25"/>
<circle cx="377.101" cy="526.229" r="10" transform="rotate(-164.194 377.101 526.229)" fill="#C4C4C4" fill-opacity="0.25"/>
<circle cx="1700" cy="328" r="10" fill="#C4C4C4" fill-opacity="0.25"/>
<circle cx="127.9" cy="155.96" r="10" transform="rotate(178.018 127.9 155.96)" fill="#C4C4C4" fill-opacity="0.25"/>
<circle cx="1004" cy="498" r="10" fill="#C4C4C4" fill-opacity="0.25"/>
<path d="M802.5 201.794L802.5 186.206L816 194L802.5 201.794Z" stroke="#111111" stroke-opacity="0.25"/>
<path d="M1029.23 251.052L1029.77 266.631L1016.01 259.308L1029.23 251.052Z" stroke="#111111" stroke-opacity="0.25"/>
<path d="M417.16 460.454L417.16 444.866L430.66 452.66L417.16 460.454Z" stroke="#111111" stroke-opacity="0.25"/>
<path d="M1405.39 -20.7803L1405.93 -5.20113L1392.17 -12.5238L1405.39 -20.7803Z" stroke="#111111" stroke-opacity="0.25"/>
<path d="M196.16 40.4545L196.16 24.866L209.66 32.6603L196.16 40.4545Z" stroke="#111111" stroke-opacity="0.25"/>
<path d="M1640.78 391.326L1641.32 406.905L1627.56 399.583L1640.78 391.326Z" stroke="#111111" stroke-opacity="0.25"/>
<path d="M1192.45 242.15L1199.93 228.476L1208.03 241.796L1192.45 242.15Z" stroke="#111111" stroke-opacity="0.25"/>
<path d="M638.118 224.205L631.11 238.129L622.555 225.098L638.118 224.205Z" stroke="#111111" stroke-opacity="0.25"/>
<path d="M1573.7 354.703L1558.55 351.019L1569.31 339.743L1573.7 354.703Z" stroke="#111111" stroke-opacity="0.25"/>
<path d="M253.204 124.904L268.469 128.063L258.102 139.704L253.204 124.904Z" stroke="#111111" stroke-opacity="0.25"/>
<path d="M278.656 498.927L274.41 513.926L263.543 502.749L278.656 498.927Z" stroke="#111111" stroke-opacity="0.25"/>
<path d="M1542.16 87.4545L1542.16 71.866L1555.66 79.6603L1542.16 87.4545Z" stroke="#111111" stroke-opacity="0.25"/>
<path d="M293.964 390.902L294.503 406.481L280.742 399.159L293.964 390.902Z" stroke="#111111" stroke-opacity="0.25"/>
<circle cx="651" cy="371" r="24.5" stroke="#111111" stroke-opacity="0.25"/>
<circle cx="1174.79" cy="76.7076" r="24.5" transform="rotate(178.018 1174.79 76.7076)" stroke="#111111" stroke-opacity="0.25"/>
<line x1="685.243" y1="357.437" x2="615.243" y2="396.437" stroke="black" stroke-opacity="0.25"/>
<line x1="1141.03" y1="91.4469" x2="1209.64" y2="50.0494" stroke="black" stroke-opacity="0.25"/>
<circle cx="641" cy="361" r="9.5" stroke="#111111" stroke-opacity="0.25"/>
<circle cx="1185.13" cy="86.3567" r="9.5" transform="rotate(178.018 1185.13 86.3567)" stroke="#111111" stroke-opacity="0.25"/>
<circle cx="667" cy="377" r="4.5" stroke="#111111" stroke-opacity="0.25"/>
<circle cx="1158.59" cy="71.2648" r="4.5" transform="rotate(178.018 1158.59 71.2648)" stroke="#111111" stroke-opacity="0.25"/>
<circle cx="664.5" cy="388.5" r="2" stroke="#111111" stroke-opacity="0.25"/>
<circle cx="1160.69" cy="59.6856" r="2" transform="rotate(178.018 1160.69 59.6856)" stroke="#111111" stroke-opacity="0.25"/>
</g>
<defs>
<clipPath id="clip0">
<rect width="1920" height="549" fill="white"/>
</clipPath>
</defs>
</svg>
