<svg width="1920" height="549" fill="none" xmlns="http://www.w3.org/2000/svg"><g clip-path="url(#clip0)"><path d="M481 104.618l1.77 5.446.112.346h6.09l-4.633 3.366-.294.213.112.346 1.77 5.446-4.633-3.366-.294-.213-.294.213-4.633 3.366 1.77-5.446.112-.346-.294-.213-4.633-3.366h6.09l.112-.346 1.77-5.446zm872.9 232.434l-1.96-5.382-.12-.341-.37.012-5.72.198 4.51-3.524.29-.223-.13-.342-1.95-5.382 4.74 3.204.31.203.28-.223 4.52-3.524-1.58 5.504-.1.349.3.203 4.74 3.204-5.72.198-.36.013-.1.349-1.58 5.504zm57.59 98.153l-1.06 5.627-.07.357.32.175 5.02 2.75-5.68.728-.36.046-.06.357-1.07 5.627-2.44-5.177-.16-.329-.36.046-5.68.728 4.17-3.927.26-.249-.15-.329-2.45-5.177 5.02 2.75.32.174.26-.249 4.17-3.928zM412.528 38.84l.868-5.66.055-.36-.325-.162-5.115-2.575 5.652-.924.358-.058.055-.36.868-5.66 2.625 5.09.167.322.358-.058 5.652-.924-4.029 4.07-.256.257.166.323 2.626 5.09-5.116-2.575-.324-.163-.256.258-4.029 4.07zM1703.37 93.1l5.71-.433.36-.027.09-.353 1.35-5.565 2.17 5.298.14.336.36-.028 5.71-.432-4.36 3.706-.28.235.14.336 2.18 5.297-4.88-3.006-.31-.191-.27.235-4.37 3.706 1.35-5.564.09-.353-.31-.19-4.87-3.008zM132.659 390.836l-5.692.629-.361.04-.074.356-1.16 5.608-2.357-5.219-.15-.331-.361.04-5.692.629 4.235-3.855.269-.244-.15-.331-2.358-5.219 4.975 2.836.316.18.268-.244 4.235-3.855-1.16 5.608-.074.356.316.179 4.975 2.837zM22.063 359.604l-.22-5.722-.014-.363-.349-.099-5.51-1.56 5.374-1.977.341-.125-.013-.363-.22-5.723 3.541 4.501.225.285.34-.125 5.375-1.977-3.186 4.759-.202.301.225.286 3.54 4.501-5.51-1.56-.35-.099-.201.302-3.186 4.758zM1803.74 66.347l.42 5.712.02.362.36.087 5.56 1.368-5.31 2.162-.33.137.02.362.42 5.712-3.69-4.376-.24-.278-.33.138-5.31 2.161 3.02-4.866.19-.308-.23-.278-3.69-4.375 5.56 1.368.35.087.19-.309 3.02-4.866zM274 221.618l1.77 5.446.112.346h6.09l-4.633 3.366-.294.213.112.346 1.77 5.446-4.633-3.366-.294-.213-.294.213-4.633 3.366 1.77-5.446.112-.346-.294-.213-4.633-3.366h6.09l.112-.346 1.77-5.446zm1282.73-8.656l-1.96-5.382-.12-.341-.37.012-5.72.199 4.51-3.525.29-.223-.12-.342-1.96-5.382 4.74 3.204.31.203.28-.223 4.52-3.524-1.58 5.504-.1.349.3.203 4.74 3.204-5.72.198-.36.013-.1.349-1.58 5.504zm-382.99 225.477l-1.07 5.627-.06.357.32.174 5.02 2.75-5.68.728-.36.046-.07.357-1.06 5.627-2.45-5.177-.16-.328-.36.046-5.68.728 4.17-3.928.27-.249-.16-.328-2.45-5.178 5.03 2.75.31.175.27-.25 4.17-3.927zM650.029 27.387l.868-5.66.055-.36-.325-.163-5.115-2.574 5.652-.924.358-.058.055-.36.868-5.66 2.625 5.09.167.322.358-.058 5.652-.924-4.029 4.069-.256.258.167.323 2.625 5.09-5.116-2.575-.324-.163-.256.258-4.029 4.07zm1118.101 294.5l5.71-.432.36-.027.08-.353 1.36-5.564 2.17 5.297.14.336.36-.028 5.71-.432-4.36 3.706-.28.235.14.336 2.17 5.298-4.87-3.007-.31-.191-.28.235-4.36 3.706 1.35-5.564.09-.353-.31-.191-4.87-3.007zM60.027 164.424l-5.692.629-.361.04-.074.356-1.16 5.608-2.358-5.219-.15-.331-.36.04-5.692.629 4.235-3.855.269-.244-.15-.331-2.358-5.219 4.975 2.836.316.18.269-.244 4.234-3.855-1.16 5.608-.074.355.316.18 4.975 2.837zm193.077 138.987l-.219-5.723-.014-.363-.35-.099-5.51-1.559 5.375-1.977.341-.126-.014-.363-.219-5.722 3.54 4.501.225.285.341-.125 5.375-1.977-3.187 4.758-.202.302.225.286 3.541 4.5-5.51-1.56-.35-.098-.202.301-3.186 4.759zM1574.78 130.496l.42 5.711.02.362.36.087 5.56 1.369-5.3 2.161-.34.137.03.363.41 5.711-3.69-4.376-.24-.277-.33.137-5.31 2.161 3.02-4.865.2-.309-.24-.277-3.69-4.376 5.56 1.368.35.087.19-.309 3.02-4.865zM878 1.618l1.77 5.446.112.346h6.09l-4.633 3.366-.294.213.112.346 1.77 5.446-4.633-3.366-.294-.213-.294.213-4.633 3.366 1.77-5.446.112-.346-.294-.213-4.633-3.366h6.09l.112-.346L878 1.618zm82.696 452.101l-1.957-5.382-.124-.341-.363.012-5.723.198 4.513-3.524.287-.223-.125-.342-1.956-5.382 4.746 3.204.301.203.287-.223 4.513-3.524-1.58 5.504-.1.349.301.203 4.746 3.204-5.723.198-.363.013-.1.349-1.58 5.504zM1337 350.618l1.77 5.446.11.346h6.09l-4.63 3.366-.3.213.12.346 1.77 5.446-4.64-3.366-.29-.213-.29.213-4.64 3.366 1.77-5.446.12-.346-.3-.213-4.63-3.366h6.09l.11-.346 1.77-5.446z" stroke="#111" stroke-opacity=".25"/><path d="M489.901 120.801l-1.957-5.382-.124-.341-.363.012-5.723.198 4.513-3.524.287-.223-.124-.342-1.957-5.382 4.746 3.204.301.203.287-.223 4.513-3.524-1.58 5.504-.1.349.301.203 4.747 3.204-5.723.198-.364.013-.1.349-1.58 5.504z" stroke="#111" stroke-opacity=".25"/><circle cx="648" cy="73" r="10" fill="#C4C4C4" fill-opacity=".25"/><circle cx="1188.09" cy="374.426" r="10" transform="rotate(178.018 1188.09 374.426)" fill="#C4C4C4" fill-opacity=".25"/><circle cx="362" cy="167" r="10" fill="#C4C4C4" fill-opacity=".25"/><circle cx="1470.67" cy="270.592" r="10" transform="rotate(178.018 1470.67 270.592)" fill="#C4C4C4" fill-opacity=".25"/><circle cx="1277.15" cy="432.784" r="10" transform="rotate(28.697 1277.15 432.784)" fill="#C4C4C4" fill-opacity=".25"/><circle cx="546.869" cy="36.615" r="10" transform="rotate(-153.285 546.869 36.615)" fill="#C4C4C4" fill-opacity=".25"/><circle cx="1735.85" cy="223.472" r="10" transform="rotate(-76.328 1735.85 223.472)" fill="#C4C4C4" fill-opacity=".25"/><circle cx="95.682" cy="261.665" r="10" transform="rotate(101.69 95.682 261.665)" fill="#C4C4C4" fill-opacity=".25"/><circle cx="153.555" cy="331.994" r="10" transform="rotate(-164.194 153.555 331.994)" fill="#C4C4C4" fill-opacity=".25"/><circle cx="1673.28" cy="98.487" r="10" transform="rotate(13.824 1673.28 98.487)" fill="#C4C4C4" fill-opacity=".25"/><circle cx="94" cy="41" r="10" fill="#C4C4C4" fill-opacity=".25"/><circle cx="1742.86" cy="387.247" r="10" transform="rotate(178.018 1742.86 387.247)" fill="#C4C4C4" fill-opacity=".25"/><circle cx="1102.57" cy="193.573" r="10" transform="rotate(28.697 1102.57 193.573)" fill="#C4C4C4" fill-opacity=".25"/><circle cx="729.618" cy="269.645" r="10" transform="rotate(-153.285 729.618 269.645)" fill="#C4C4C4" fill-opacity=".25"/><circle cx="1550.08" cy="454.097" r="10" transform="rotate(-76.328 1550.08 454.097)" fill="#C4C4C4" fill-opacity=".25"/><circle cx="273.369" cy="24.754" r="10" transform="rotate(101.69 273.369 24.754)" fill="#C4C4C4" fill-opacity=".25"/><circle cx="377.101" cy="526.229" r="10" transform="rotate(-164.194 377.101 526.229)" fill="#C4C4C4" fill-opacity=".25"/><circle cx="1700" cy="328" r="10" fill="#C4C4C4" fill-opacity=".25"/><circle cx="127.9" cy="155.96" r="10" transform="rotate(178.018 127.9 155.96)" fill="#C4C4C4" fill-opacity=".25"/><circle cx="1004" cy="498" r="10" fill="#C4C4C4" fill-opacity=".25"/><path d="M802.5 201.794v-15.588L816 194l-13.5 7.794zm226.73 49.258l.54 15.579-13.76-7.323 13.22-8.256zM417.16 460.454v-15.588l13.5 7.794-13.5 7.794zM1405.39-20.78l.54 15.579-13.76-7.323 13.22-8.256zM196.16 40.455V24.866l13.5 7.794-13.5 7.795zm1444.62 350.871l.54 15.579-13.76-7.322 13.22-8.257zM1192.45 242.15l7.48-13.674 8.1 13.32-15.58.354zm-554.332-17.945l-7.008 13.924-8.555-13.031 15.563-.893zM1573.7 354.703l-15.15-3.684 10.76-11.276 4.39 14.96zM253.204 124.904l15.265 3.159-10.367 11.641-4.898-14.8zm25.452 374.023l-4.246 14.999-10.867-11.177 15.113-3.822zM1542.16 87.454V71.867l13.5 7.794-13.5 7.794zM293.964 390.902l.539 15.579-13.761-7.322 13.222-8.257z" stroke="#111" stroke-opacity=".25"/><circle cx="651" cy="371" r="24.5" stroke="#111" stroke-opacity=".25"/><circle cx="1174.79" cy="76.708" r="24.5" transform="rotate(178.018 1174.79 76.708)" stroke="#111" stroke-opacity=".25"/><path stroke="#000" stroke-opacity=".25" d="M685.243 357.437l-70 39m525.787-304.99l68.61-41.398"/><circle cx="641" cy="361" r="9.5" stroke="#111" stroke-opacity=".25"/><circle cx="1185.13" cy="86.357" r="9.5" transform="rotate(178.018 1185.13 86.357)" stroke="#111" stroke-opacity=".25"/><circle cx="667" cy="377" r="4.5" stroke="#111" stroke-opacity=".25"/><circle cx="1158.59" cy="71.265" r="4.5" transform="rotate(178.018 1158.59 71.265)" stroke="#111" stroke-opacity=".25"/><circle cx="664.5" cy="388.5" r="2" stroke="#111" stroke-opacity=".25"/><circle cx="1160.69" cy="59.686" r="2" transform="rotate(178.018 1160.69 59.686)" stroke="#111" stroke-opacity=".25"/></g><defs><clipPath id="clip0"><path fill="#fff" d="M0 0h1920v549H0z"/></clipPath></defs></svg>