<svg width="287" height="105" viewBox="0 0 287 105" fill="none" xmlns="http://www.w3.org/2000/svg">
<path d="M8.20645 98C6.72645 98 5.53645 97.85 4.63645 97.55C3.73645 97.25 3.06645 96.72 2.62645 95.96C2.18645 95.2 1.96645 94.13 1.96645 92.75V89.42C1.96645 88.04 2.18645 86.97 2.62645 86.21C3.06645 85.45 3.73645 84.92 4.63645 84.62C5.53645 84.32 6.72645 84.17 8.20645 84.17H12.4364H12.5564C13.6364 84.17 14.3564 84.45 14.7164 85.01C15.0964 85.57 15.2864 86.3 15.2864 87.2C15.2864 87.92 15.0764 88.28 14.6564 88.28C14.2364 88.28 14.0264 87.96 14.0264 87.32C14.0264 86.66 13.8864 86.18 13.6064 85.88C13.3464 85.58 12.8864 85.43 12.2264 85.43H8.20645C7.16645 85.43 6.39645 85.47 5.89645 85.55C5.39645 85.61 4.92645 85.77 4.48645 86.03C4.02645 86.29 3.69645 86.69 3.49645 87.23C3.31645 87.77 3.22645 88.5 3.22645 89.42V92.75C3.22645 93.67 3.31645 94.4 3.49645 94.94C3.69645 95.46 4.02645 95.85 4.48645 96.11C4.92645 96.37 5.40645 96.54 5.92645 96.62C6.44645 96.7 7.20645 96.74 8.20645 96.74H12.2264C12.8864 96.74 13.3464 96.6 13.6064 96.32C13.8864 96.02 14.0264 95.53 14.0264 94.85C14.0264 94.55 14.0864 94.32 14.2064 94.16C14.3464 93.98 14.4964 93.89 14.6564 93.89C14.8364 93.89 14.9864 93.97 15.1064 94.13C15.2264 94.27 15.2864 94.46 15.2864 94.7C15.2864 95.78 15.0964 96.6 14.7164 97.16C14.3564 97.72 13.5964 98 12.4364 98H8.20645ZM28.86 84.17C29.42 84.17 29.7 84.38 29.7 84.8C29.7 85.22 29.42 85.43 28.86 85.43H24.24V97.4C24.24 97.94 24.03 98.21 23.61 98.21C23.19 98.21 22.98 97.94 22.98 97.4V85.43H18.33C17.77 85.43 17.49 85.22 17.49 84.8C17.49 84.38 17.77 84.17 18.33 84.17H28.86ZM45.5557 100.76C45.5557 102.04 45.3757 102.92 45.0157 103.4C44.6557 103.9 43.9757 104.15 42.9757 104.15H35.0857H34.9657C33.8857 104.15 33.1557 103.87 32.7757 103.31C32.4157 102.75 32.2357 102.02 32.2357 101.12C32.2357 100.4 32.4457 100.04 32.8657 100.04C33.2857 100.04 33.4957 100.36 33.4957 101C33.4957 101.66 33.6257 102.14 33.8857 102.44C34.1657 102.74 34.6357 102.89 35.2957 102.89H42.7657C43.3857 102.89 43.7957 102.78 43.9957 102.56C44.1957 102.34 44.2957 101.9 44.2957 101.24V95.84C43.2157 97.28 41.5657 98 39.3457 98H38.4757C36.9957 98 35.8057 97.85 34.9057 97.55C34.0057 97.25 33.3357 96.72 32.8957 95.96C32.4557 95.2 32.2357 94.13 32.2357 92.75V84.92C32.2357 84.28 32.4457 83.96 32.8657 83.96C33.2857 83.96 33.4957 84.28 33.4957 84.92V92.75C33.4957 93.67 33.5857 94.4 33.7657 94.94C33.9657 95.46 34.2957 95.85 34.7557 96.11C35.1957 96.37 35.6757 96.54 36.1957 96.62C36.7157 96.7 37.4757 96.74 38.4757 96.74H39.3457C40.9257 96.74 42.1457 96.26 43.0057 95.3C43.8657 94.34 44.2957 92.96 44.2957 91.16V84.92C44.2957 84.28 44.5057 83.96 44.9257 83.96C45.3457 83.96 45.5557 84.28 45.5557 84.92V100.76ZM49.3618 99.86C49.3618 100.46 49.1518 100.76 48.7318 100.76C48.3118 100.76 48.1018 100.46 48.1018 99.86V98.3C48.1018 97.26 48.5618 96.74 49.4818 96.74H49.8718C51.8918 93.34 52.9018 89.15 52.9018 84.17H60.2818V96.74H61.7218C62.6418 96.74 63.1018 97.26 63.1018 98.3V99.86C63.1018 100.46 62.8918 100.76 62.4718 100.76C62.0518 100.76 61.8418 100.46 61.8418 99.86V98H49.3618V99.86ZM59.0218 85.43H54.1318C54.1318 89.61 53.1718 93.38 51.2518 96.74H59.0218V85.43ZM79.0971 84.17V97.28C79.0971 97.9 78.8871 98.21 78.4671 98.21C78.0471 98.21 77.8371 97.9 77.8371 97.28V85.91L67.5471 98H66.0771V84.89C66.0771 84.27 66.2871 83.96 66.7071 83.96C67.1271 83.96 67.3371 84.27 67.3371 84.89V96.38L77.7171 84.17H79.0971ZM86.8974 91.79C85.7974 91.63 84.9974 91.28 84.4974 90.74C84.0174 90.2 83.7774 89.44 83.7774 88.46C83.7774 87.58 83.8674 86.89 84.0474 86.39C84.2474 85.87 84.5174 85.45 84.8574 85.13C85.5574 84.49 87.2674 84.17 89.9874 84.17H94.4574C94.8374 84.17 95.0274 84.48 95.0274 85.1V97.4C95.0274 97.94 94.8174 98.21 94.3974 98.21C93.9774 98.21 93.7674 97.94 93.7674 97.4V91.94H90.1674C89.0874 91.94 88.2674 92.16 87.7074 92.6C87.1474 93.04 86.7174 93.77 86.4174 94.79C86.1374 95.79 85.6674 96.62 85.0074 97.28C84.3674 97.92 83.6874 98.24 82.9674 98.24C82.2474 98.24 81.8874 98.03 81.8874 97.61C81.8874 97.19 82.1774 96.98 82.7574 96.98C83.2974 96.98 83.7774 96.77 84.1974 96.35C84.6374 95.91 84.9374 95.43 85.0974 94.91L85.2474 94.37C85.5074 93.33 86.0574 92.47 86.8974 91.79ZM93.7674 90.68V85.43H89.0574C87.9574 85.43 87.1274 85.49 86.5674 85.61C86.0274 85.73 85.6374 85.98 85.3974 86.36C85.1574 86.72 85.0374 87.29 85.0374 88.07C85.0374 88.85 85.1574 89.42 85.3974 89.78C85.6374 90.14 86.0274 90.38 86.5674 90.5C87.1074 90.62 87.9374 90.68 89.0574 90.68H93.7674ZM107.678 91.7V97.4C107.678 97.94 107.468 98.21 107.048 98.21C106.628 98.21 106.418 97.94 106.418 97.4V84.8C106.418 84.24 106.628 83.96 107.048 83.96C107.468 83.96 107.678 84.24 107.678 84.8V90.44H111.008C111.388 90.44 111.758 90.24 112.118 89.84C112.478 89.42 112.868 88.85 113.288 88.13C113.748 87.29 114.178 86.59 114.578 86.03C114.998 85.47 115.518 84.99 116.138 84.59C116.818 84.15 117.528 83.93 118.268 83.93C118.988 83.93 119.348 84.14 119.348 84.56C119.348 84.98 119.038 85.19 118.418 85.19C117.818 85.19 117.238 85.41 116.678 85.85C116.118 86.27 115.648 86.79 115.268 87.41C114.248 89.17 113.428 90.35 112.808 90.95C113.708 91.27 114.488 91.77 115.148 92.45C115.808 93.13 116.238 93.82 116.438 94.52C116.978 96.14 117.638 96.95 118.418 96.95C119.038 96.95 119.348 97.16 119.348 97.58C119.348 98 119.008 98.21 118.328 98.21C117.148 98.21 116.228 97.44 115.568 95.9C115.188 95.02 114.808 94.31 114.428 93.77C114.068 93.23 113.518 92.76 112.778 92.36C111.958 91.92 110.868 91.7 109.508 91.7H107.678ZM128.441 98C126.961 98 125.771 97.85 124.871 97.55C123.971 97.25 123.301 96.72 122.861 95.96C122.421 95.2 122.201 94.13 122.201 92.75V89.42C122.201 88.04 122.421 86.97 122.861 86.21C123.301 85.45 123.971 84.92 124.871 84.62C125.771 84.32 126.961 84.17 128.441 84.17H129.311C130.791 84.17 131.971 84.32 132.851 84.62C133.751 84.92 134.421 85.45 134.861 86.21C135.301 86.97 135.521 88.04 135.521 89.42V92.75C135.521 94.13 135.301 95.2 134.861 95.96C134.421 96.72 133.751 97.25 132.851 97.55C131.971 97.85 130.791 98 129.311 98H128.441ZM129.311 96.74C130.311 96.74 131.061 96.7 131.561 96.62C132.081 96.54 132.561 96.37 133.001 96.11C133.461 95.85 133.781 95.46 133.961 94.94C134.161 94.4 134.261 93.67 134.261 92.75V89.42C134.261 88.5 134.161 87.77 133.961 87.23C133.781 86.69 133.461 86.29 133.001 86.03C132.561 85.77 132.091 85.61 131.591 85.55C131.091 85.47 130.331 85.43 129.311 85.43H128.441C127.401 85.43 126.631 85.47 126.131 85.55C125.631 85.61 125.161 85.77 124.721 86.03C124.261 86.29 123.931 86.69 123.731 87.23C123.551 87.77 123.461 88.5 123.461 89.42V92.75C123.461 93.67 123.551 94.4 123.731 94.94C123.931 95.46 124.261 95.85 124.721 96.11C125.161 96.37 125.641 96.54 126.161 96.62C126.681 96.7 127.441 96.74 128.441 96.74H129.311ZM151.552 97.28C151.552 97.9 151.342 98.21 150.922 98.21C150.502 98.21 150.292 97.9 150.292 97.28V85.43H143.902C143.242 85.43 142.772 85.58 142.492 85.88C142.232 86.16 142.102 86.66 142.102 87.38V94.28C142.102 95.3 141.992 96.08 141.772 96.62C141.552 97.14 141.222 97.5 140.782 97.7C140.362 97.9 139.782 98 139.042 98C138.422 98 138.112 97.79 138.112 97.37C138.112 96.95 138.432 96.74 139.072 96.74C139.712 96.74 140.162 96.6 140.422 96.32C140.702 96.02 140.842 95.52 140.842 94.82V87.89C140.842 86.49 141.042 85.52 141.442 84.98C141.862 84.44 142.612 84.17 143.692 84.17H151.552V97.28ZM161.869 98C160.389 98 159.199 97.85 158.299 97.55C157.399 97.25 156.729 96.72 156.289 95.96C155.849 95.2 155.629 94.13 155.629 92.75V89.42C155.629 88.04 155.849 86.97 156.289 86.21C156.729 85.45 157.399 84.92 158.299 84.62C159.199 84.32 160.389 84.17 161.869 84.17H162.739C164.219 84.17 165.399 84.32 166.279 84.62C167.179 84.92 167.849 85.45 168.289 86.21C168.729 86.97 168.949 88.04 168.949 89.42V92.75C168.949 94.13 168.729 95.2 168.289 95.96C167.849 96.72 167.179 97.25 166.279 97.55C165.399 97.85 164.219 98 162.739 98H161.869ZM162.739 96.74C163.739 96.74 164.489 96.7 164.989 96.62C165.509 96.54 165.989 96.37 166.429 96.11C166.889 95.85 167.209 95.46 167.389 94.94C167.589 94.4 167.689 93.67 167.689 92.75V89.42C167.689 88.5 167.589 87.77 167.389 87.23C167.209 86.69 166.889 86.29 166.429 86.03C165.989 85.77 165.519 85.61 165.019 85.55C164.519 85.47 163.759 85.43 162.739 85.43H161.869C160.829 85.43 160.059 85.47 159.559 85.55C159.059 85.61 158.589 85.77 158.149 86.03C157.689 86.29 157.359 86.69 157.159 87.23C156.979 87.77 156.889 88.5 156.889 89.42V92.75C156.889 93.67 156.979 94.4 157.159 94.94C157.359 95.46 157.689 95.85 158.149 96.11C158.589 96.37 159.069 96.54 159.589 96.62C160.109 96.7 160.869 96.74 161.869 96.74H162.739ZM186.389 92.75C186.389 94.13 186.169 95.2 185.729 95.96C185.289 96.72 184.619 97.25 183.719 97.55C182.839 97.85 181.659 98 180.179 98H174.329V102.56C174.329 103.16 174.099 103.46 173.639 103.46C173.259 103.46 173.069 103.16 173.069 102.56V84.86C173.069 84.26 173.279 83.96 173.699 83.96C174.119 83.96 174.329 84.26 174.329 84.86V86.33C175.449 84.89 177.109 84.17 179.309 84.17H180.179C181.659 84.17 182.839 84.32 183.719 84.62C184.619 84.92 185.289 85.45 185.729 86.21C186.169 86.97 186.389 88.04 186.389 89.42V92.75ZM185.129 89.42C185.129 88.5 185.029 87.77 184.829 87.23C184.649 86.69 184.329 86.29 183.869 86.03C183.429 85.77 182.959 85.61 182.459 85.55C181.959 85.47 181.199 85.43 180.179 85.43H179.309C177.709 85.43 176.479 85.92 175.619 86.9C174.759 87.86 174.329 89.24 174.329 91.04V96.74H180.179C181.179 96.74 181.929 96.7 182.429 96.62C182.949 96.54 183.429 96.37 183.869 96.11C184.329 95.85 184.649 95.46 184.829 94.94C185.029 94.4 185.129 93.67 185.129 92.75V89.42ZM203.521 84.17V97.28C203.521 97.9 203.311 98.21 202.891 98.21C202.471 98.21 202.261 97.9 202.261 97.28V85.91L191.971 98H190.501V84.89C190.501 84.27 190.711 83.96 191.131 83.96C191.551 83.96 191.761 84.27 191.761 84.89V96.38L202.141 84.17H203.521ZM213.841 98C212.361 98 211.171 97.85 210.271 97.55C209.371 97.25 208.701 96.72 208.261 95.96C207.821 95.2 207.601 94.13 207.601 92.75V89.42C207.601 88.04 207.821 86.97 208.261 86.21C208.701 85.45 209.371 84.92 210.271 84.62C211.171 84.32 212.361 84.17 213.841 84.17H218.071H218.191C219.271 84.17 219.991 84.45 220.351 85.01C220.731 85.57 220.921 86.3 220.921 87.2C220.921 87.92 220.711 88.28 220.291 88.28C219.871 88.28 219.661 87.96 219.661 87.32C219.661 86.66 219.521 86.18 219.241 85.88C218.981 85.58 218.521 85.43 217.861 85.43H213.841C212.801 85.43 212.031 85.47 211.531 85.55C211.031 85.61 210.561 85.77 210.121 86.03C209.661 86.29 209.331 86.69 209.131 87.23C208.951 87.77 208.861 88.5 208.861 89.42V92.75C208.861 93.67 208.951 94.4 209.131 94.94C209.331 95.46 209.661 95.85 210.121 96.11C210.561 96.37 211.041 96.54 211.561 96.62C212.081 96.7 212.841 96.74 213.841 96.74H217.861C218.521 96.74 218.981 96.6 219.241 96.32C219.521 96.02 219.661 95.53 219.661 94.85C219.661 94.55 219.721 94.32 219.841 94.16C219.981 93.98 220.131 93.89 220.291 93.89C220.471 93.89 220.621 93.97 220.741 94.13C220.861 94.27 220.921 94.46 220.921 94.7C220.921 95.78 220.731 96.6 220.351 97.16C219.991 97.72 219.231 98 218.071 98H213.841ZM234.495 84.17C235.055 84.17 235.335 84.38 235.335 84.8C235.335 85.22 235.055 85.43 234.495 85.43H229.875V97.4C229.875 97.94 229.665 98.21 229.245 98.21C228.825 98.21 228.615 97.94 228.615 97.4V85.43H223.965C223.405 85.43 223.125 85.22 223.125 84.8C223.125 84.38 223.405 84.17 223.965 84.17H234.495ZM251.041 84.17V97.28C251.041 97.9 250.831 98.21 250.411 98.21C249.991 98.21 249.781 97.9 249.781 97.28V85.91L239.491 98H238.021V84.89C238.021 84.27 238.231 83.96 238.651 83.96C239.071 83.96 239.281 84.27 239.281 84.89V96.38L249.661 84.17H251.041ZM256.741 91.7V97.4C256.741 97.94 256.531 98.21 256.111 98.21C255.691 98.21 255.481 97.94 255.481 97.4V84.8C255.481 84.24 255.691 83.96 256.111 83.96C256.531 83.96 256.741 84.24 256.741 84.8V90.44H260.071C260.451 90.44 260.821 90.24 261.181 89.84C261.541 89.42 261.931 88.85 262.351 88.13C262.811 87.29 263.241 86.59 263.641 86.03C264.061 85.47 264.581 84.99 265.201 84.59C265.881 84.15 266.591 83.93 267.331 83.93C268.051 83.93 268.411 84.14 268.411 84.56C268.411 84.98 268.101 85.19 267.481 85.19C266.881 85.19 266.301 85.41 265.741 85.85C265.181 86.27 264.711 86.79 264.331 87.41C263.311 89.17 262.491 90.35 261.871 90.95C262.771 91.27 263.551 91.77 264.211 92.45C264.871 93.13 265.301 93.82 265.501 94.52C266.041 96.14 266.701 96.95 267.481 96.95C268.101 96.95 268.411 97.16 268.411 97.58C268.411 98 268.071 98.21 267.391 98.21C266.211 98.21 265.291 97.44 264.631 95.9C264.251 95.02 263.871 94.31 263.491 93.77C263.131 93.23 262.581 92.76 261.841 92.36C261.021 91.92 259.931 91.7 258.571 91.7H256.741ZM284.673 84.17V97.28C284.673 97.9 284.463 98.21 284.043 98.21C283.623 98.21 283.413 97.9 283.413 97.28V85.91L273.123 98H271.653V84.89C271.653 84.27 271.863 83.96 272.283 83.96C272.703 83.96 272.913 84.27 272.913 84.89V96.38L283.293 84.17H284.673Z" fill="white"/>
<path d="M67.8477 15.9L79.7977 46.05C79.8977 46.3833 79.9477 46.8 79.9477 47.3C79.9477 47.7667 79.731 48.1833 79.2977 48.55C78.8977 48.9167 78.4143 49.1 77.8477 49.1C76.8143 49.1 76.0977 48.5667 75.6977 47.5L72.3477 38.85H58.8477L55.4977 47.5C55.031 48.5667 54.3143 49.1 53.3477 49.1C52.781 49.1 52.281 48.9167 51.8477 48.55C51.4477 48.1833 51.2477 47.7667 51.2477 47.3C51.2477 46.8 51.2977 46.3833 51.3977 46.05L63.3477 15.9H67.8477ZM65.5477 22.2L60.5477 34.65H70.6477L65.5477 22.2ZM107.915 46.15C107.915 47.8167 107.215 48.65 105.815 48.65C104.415 48.65 103.715 47.8333 103.715 46.2V28.85H93.8152C92.6819 28.85 91.9319 28.9833 91.5652 29.25C91.2319 29.5167 91.0652 30.0667 91.0652 30.9V41.5C91.0652 43.9 90.5652 45.65 89.5652 46.75C88.5986 47.8167 87.0152 48.35 84.8152 48.35H84.6652C82.7986 48.35 81.8652 47.65 81.8652 46.25H82.1652V46.2H81.8652C81.8652 44.8 82.7486 44.1 84.5152 44.1C85.4152 44.1 86.0319 43.9667 86.3652 43.7C86.6986 43.4 86.8652 42.8667 86.8652 42.1V31.45C86.8652 29.65 87.0486 28.2667 87.4152 27.3C87.8152 26.3333 88.4819 25.65 89.4152 25.25C90.3486 24.85 91.6819 24.65 93.4152 24.65H107.915V46.15ZM141.482 36.55H118.382V38.95C118.382 40.4833 118.582 41.6 118.982 42.3C119.415 43 120.215 43.4833 121.382 43.75C122.582 43.9833 124.498 44.1 127.132 44.1H134.832C135.598 44.1 136.115 43.9667 136.382 43.7C136.648 43.4 136.782 42.8333 136.782 42C136.782 41.1667 136.965 40.5167 137.332 40.05C137.698 39.5833 138.215 39.35 138.882 39.35C140.282 39.3833 140.982 40.3333 140.982 42.2C140.982 44.2667 140.498 45.8 139.532 46.8C138.598 47.8 137.148 48.3 135.182 48.3H127.132C123.898 48.3 121.348 48.0167 119.482 47.45C117.615 46.85 116.265 45.8833 115.432 44.55C114.598 43.2167 114.182 41.4 114.182 39.1V33.85C114.182 31.55 114.598 29.7333 115.432 28.4C116.265 27.0667 117.615 26.1167 119.482 25.55C121.348 24.95 123.898 24.65 127.132 24.65H128.582C131.815 24.65 134.348 24.95 136.182 25.55C138.048 26.1167 139.398 27.0667 140.232 28.4C141.065 29.7333 141.482 31.55 141.482 33.85V36.55ZM127.132 28.85C123.532 28.85 121.182 29.1 120.082 29.6C119.082 30 118.515 30.9167 118.382 32.35H137.232C137.065 30.8833 136.482 29.95 135.482 29.55C134.248 29.0833 131.948 28.85 128.582 28.85H127.132ZM171.05 44.35C171.417 44.8167 171.6 45.2833 171.6 45.75C171.6 46.35 171.317 46.8667 170.75 47.3C170.35 47.6667 169.883 47.85 169.35 47.85C168.75 47.85 168.233 47.5667 167.8 47L155.55 31.85L153.4 34.1V45.9C153.4 46.5667 153.217 47.0833 152.85 47.45C152.483 47.8167 151.967 48 151.3 48C150.633 48 150.117 47.8167 149.75 47.45C149.383 47.0833 149.2 46.5667 149.2 45.9V16.2C149.2 15.5333 149.383 15.0167 149.75 14.65C150.117 14.2833 150.633 14.1 151.3 14.1C151.967 14.1 152.483 14.2833 152.85 14.65C153.217 15.0167 153.4 15.5333 153.4 16.2V28.1L166.15 14.9C166.65 14.4 167.15 14.15 167.65 14.15C168.15 14.15 168.633 14.3833 169.1 14.85C169.6 15.35 169.85 15.85 169.85 16.35C169.85 16.85 169.617 17.3333 169.15 17.8L158.55 28.8L171.05 44.35ZM186.996 48C184.129 48 181.896 47.4333 180.296 46.3C178.729 45.1333 177.746 43.35 177.346 40.95C177.279 40.25 177.429 39.7167 177.796 39.35C178.162 38.95 178.696 38.75 179.396 38.75C180.062 38.75 180.562 38.9167 180.896 39.25C181.229 39.55 181.462 40.0667 181.596 40.8C181.829 41.9333 182.346 42.7167 183.146 43.15C183.979 43.5833 185.262 43.8 186.996 43.8H194.196C195.662 43.8 196.779 43.6333 197.546 43.3C198.346 42.9667 198.912 42.4167 199.246 41.65C199.579 40.85 199.746 39.7333 199.746 38.3C199.746 36.1667 199.346 34.7 198.546 33.9C197.746 33.1 196.296 32.7 194.196 32.7H187.996C184.862 32.7 182.529 31.9333 180.996 30.4C179.462 28.8667 178.696 26.5167 178.696 23.35C178.696 20.2167 179.446 17.9 180.946 16.4C182.479 14.8667 184.812 14.1 187.946 14.1H193.896C199.162 14.1 202.196 16.3 202.996 20.7C203.096 21.4 202.962 21.95 202.596 22.35C202.229 22.7167 201.679 22.9 200.946 22.9C200.279 22.9 199.779 22.7333 199.446 22.4C199.112 22.0667 198.896 21.55 198.796 20.85C198.529 19.8833 198.029 19.2167 197.296 18.85C196.562 18.4833 195.429 18.3 193.896 18.3H187.946C186.579 18.3 185.529 18.45 184.796 18.75C184.096 19.05 183.596 19.5667 183.296 20.3C183.029 21 182.896 22.0167 182.896 23.35C182.896 24.7167 183.046 25.7667 183.346 26.5C183.646 27.2 184.146 27.7167 184.846 28.05C185.579 28.35 186.629 28.5 187.996 28.5H194.196C197.496 28.5 199.946 29.3 201.546 30.9C203.146 32.5 203.946 34.9667 203.946 38.3C203.946 41.6 203.146 44.05 201.546 45.65C199.946 47.2167 197.496 48 194.196 48H186.996ZM228.615 24.65C230.748 24.65 232.248 25.1667 233.115 26.2C233.982 27.2 234.415 28.95 234.415 31.45V46.25C234.415 47.85 233.715 48.65 232.315 48.65C230.915 48.65 230.215 47.8 230.215 46.1C228.215 47.5667 225.315 48.3 221.515 48.3H216.865C215.032 48.3 213.548 47.6833 212.415 46.45C211.282 45.1833 210.715 43.55 210.715 41.55C210.715 39.3167 211.132 37.55 211.965 36.25C212.832 34.9167 214.198 33.95 216.065 33.35C217.965 32.75 220.498 32.45 223.665 32.45H230.215V30.65C230.215 29.9167 230.082 29.4333 229.815 29.2C229.582 28.9667 229.065 28.85 228.265 28.85H221.215C218.748 28.85 217.032 28.9833 216.065 29.25C215.298 29.4833 214.915 29.9 214.915 30.5C214.915 32.2 214.215 33.05 212.815 33.05C211.415 33.05 210.715 32.2 210.715 30.5C210.715 28.4667 211.515 26.9833 213.115 26.05C214.748 25.1167 217.332 24.65 220.865 24.65H228.615ZM221.515 44.1C224.982 44.1 227.298 43.4333 228.465 42.1C229.632 40.7333 230.215 38.9167 230.215 36.65H223.665C221.032 36.65 219.115 36.7833 217.915 37.05C216.748 37.2833 215.948 37.75 215.515 38.45C215.115 39.15 214.915 40.2667 214.915 41.8C214.915 42.3667 215.115 42.9 215.515 43.4C215.948 43.8667 216.398 44.1 216.865 44.1H221.515Z" fill="url(#paint0_linear)"/>
<defs>
<linearGradient id="paint0_linear" x1="238" y1="59" x2="50" y2="59" gradientUnits="userSpaceOnUse">
<stop stop-color="#EB03F9"/>
<stop offset="1" stop-color="#02D1F6"/>
</linearGradient>
</defs>
</svg>
