<svg width="287" height="105" fill="none" xmlns="http://www.w3.org/2000/svg"><path d="M8.206 98c-1.48 0-2.67-.15-3.57-.45-.9-.3-1.57-.83-2.01-1.59-.44-.76-.66-1.83-.66-3.21v-3.33c0-1.38.22-2.45.66-3.21.44-.76 1.11-1.29 2.01-1.59.9-.3 2.09-.45 3.57-.45h4.35c1.08 0 1.8.28 2.16.84.38.56.57 1.29.57 2.19 0 .72-.21 1.08-.63 1.08-.42 0-.63-.32-.63-.96 0-.66-.14-1.14-.42-1.44-.26-.3-.72-.45-1.38-.45h-4.02c-1.04 0-1.81.04-2.31.12-.5.06-.97.22-1.41.48-.46.26-.79.66-.99 1.2-.18.54-.27 1.27-.27 2.19v3.33c0 .92.09 1.65.27 2.19.2.52.53.91.99 1.17.44.26.92.43 1.44.51.52.08 1.28.12 2.28.12h4.02c.66 0 1.12-.14 1.38-.42.28-.3.42-.79.42-1.47 0-.3.06-.53.18-.69.14-.18.29-.27.45-.27.18 0 .33.08.45.24.12.14.18.33.18.57 0 1.08-.19 1.9-.57 2.46-.36.56-1.12.84-2.28.84h-4.23zM28.86 84.17c.56 0 .84.21.84.63 0 .42-.28.63-.84.63h-4.62V97.4c0 .54-.21.81-.63.81-.42 0-.63-.27-.63-.81V85.43h-4.65c-.56 0-.84-.21-.84-.63 0-.42.28-.63.84-.63h10.53zm16.696 16.59c0 1.28-.18 2.16-.54 2.64-.36.5-1.04.75-2.04.75h-8.01c-1.08 0-1.81-.28-2.19-.84-.36-.56-.54-1.29-.54-2.19 0-.72.21-1.08.63-1.08.42 0 .63.32.63.96 0 .66.13 1.14.39 1.44.28.3.75.45 1.41.45h7.47c.62 0 1.03-.11 1.23-.33.2-.22.3-.66.3-1.32v-5.4c-1.08 1.44-2.73 2.16-4.95 2.16h-.87c-1.48 0-2.67-.15-3.57-.45-.9-.3-1.57-.83-2.01-1.59-.44-.76-.66-1.83-.66-3.21v-7.83c0-.64.21-.96.63-.96.42 0 .63.32.63.96v7.83c0 .92.09 1.65.27 2.19.2.52.53.91.99 1.17.44.26.92.43 1.44.51.52.08 1.28.12 2.28.12h.87c1.58 0 2.8-.48 3.66-1.44.86-.96 1.29-2.34 1.29-4.14v-6.24c0-.64.21-.96.63-.96.42 0 .63.32.63.96v15.84zm3.806-.9c0 .6-.21.9-.63.9-.42 0-.63-.3-.63-.9V98.3c0-1.04.46-1.56 1.38-1.56h.39c2.02-3.4 3.03-7.59 3.03-12.57h7.38v12.57h1.44c.92 0 1.38.52 1.38 1.56v1.56c0 .6-.21.9-.63.9-.42 0-.63-.3-.63-.9V98h-12.48v1.86zm9.66-14.43h-4.89c0 4.18-.96 7.95-2.88 11.31h7.77V85.43zm20.075-1.26v13.11c0 .62-.21.93-.63.93-.42 0-.63-.31-.63-.93V85.91L67.547 98h-1.47V84.89c0-.62.21-.93.63-.93.42 0 .63.31.63.93v11.49l10.38-12.21h1.38zm7.8 7.62c-1.1-.16-1.9-.51-2.4-1.05-.48-.54-.72-1.3-.72-2.28 0-.88.09-1.57.27-2.07.2-.52.47-.94.81-1.26.7-.64 2.41-.96 5.13-.96h4.47c.38 0 .57.31.57.93v12.3c0 .54-.21.81-.63.81-.42 0-.63-.27-.63-.81v-5.46h-3.6c-1.08 0-1.9.22-2.46.66-.56.44-.99 1.17-1.29 2.19-.28 1-.75 1.83-1.41 2.49-.64.64-1.32.96-2.04.96s-1.08-.21-1.08-.63c0-.42.29-.63.87-.63.54 0 1.02-.21 1.44-.63.44-.44.74-.92.9-1.44l.15-.54c.26-1.04.81-1.9 1.65-2.58zm6.87-1.11v-5.25h-4.71c-1.1 0-1.93.06-2.49.18-.54.12-.93.37-1.17.75-.24.36-.36.93-.36 1.71 0 .78.12 1.35.36 1.71.24.36.63.6 1.17.72.54.12 1.37.18 2.49.18h4.71zm13.911 1.02v5.7c0 .54-.21.81-.63.81-.42 0-.63-.27-.63-.81V84.8c0-.56.21-.84.63-.84.42 0 .63.28.63.84v5.64h3.33c.38 0 .75-.2 1.11-.6.36-.42.75-.99 1.17-1.71.46-.84.89-1.54 1.29-2.1.42-.56.94-1.04 1.56-1.44.68-.44 1.39-.66 2.13-.66.72 0 1.08.21 1.08.63 0 .42-.31.63-.93.63-.6 0-1.18.22-1.74.66-.56.42-1.03.94-1.41 1.56-1.02 1.76-1.84 2.94-2.46 3.54.9.32 1.68.82 2.34 1.5.66.68 1.09 1.37 1.29 2.07.54 1.62 1.2 2.43 1.98 2.43.62 0 .93.21.93.63 0 .42-.34.63-1.02.63-1.18 0-2.1-.77-2.76-2.31-.38-.88-.76-1.59-1.14-2.13-.36-.54-.91-1.01-1.65-1.41-.82-.44-1.91-.66-3.27-.66h-1.83zm20.763 6.3c-1.48 0-2.67-.15-3.57-.45-.9-.3-1.57-.83-2.01-1.59-.44-.76-.66-1.83-.66-3.21v-3.33c0-1.38.22-2.45.66-3.21.44-.76 1.11-1.29 2.01-1.59.9-.3 2.09-.45 3.57-.45h.87c1.48 0 2.66.15 3.54.45.9.3 1.57.83 2.01 1.59.44.76.66 1.83.66 3.21v3.33c0 1.38-.22 2.45-.66 3.21-.44.76-1.11 1.29-2.01 1.59-.88.3-2.06.45-3.54.45h-.87zm.87-1.26c1 0 1.75-.04 2.25-.12.52-.08 1-.25 1.44-.51.46-.26.78-.65.96-1.17.2-.54.3-1.27.3-2.19v-3.33c0-.92-.1-1.65-.3-2.19-.18-.54-.5-.94-.96-1.2-.44-.26-.91-.42-1.41-.48-.5-.08-1.26-.12-2.28-.12h-.87c-1.04 0-1.81.04-2.31.12-.5.06-.97.22-1.41.48-.46.26-.79.66-.99 1.2-.18.54-.27 1.27-.27 2.19v3.33c0 .92.09 1.65.27 2.19.2.52.53.91.99 1.17.44.26.92.43 1.44.51.52.08 1.28.12 2.28.12h.87zm22.241.54c0 .62-.21.93-.63.93-.42 0-.63-.31-.63-.93V85.43h-6.39c-.66 0-1.13.15-1.41.45-.26.28-.39.78-.39 1.5v6.9c0 1.02-.11 1.8-.33 2.34-.22.52-.55.88-.99 1.08-.42.2-1 .3-1.74.3-.62 0-.93-.21-.93-.63 0-.42.32-.63.96-.63.64 0 1.09-.14 1.35-.42.28-.3.42-.8.42-1.5v-6.93c0-1.4.2-2.37.6-2.91.42-.54 1.17-.81 2.25-.81h7.86v13.11zm10.317.72c-1.48 0-2.67-.15-3.57-.45-.9-.3-1.57-.83-2.01-1.59-.44-.76-.66-1.83-.66-3.21v-3.33c0-1.38.22-2.45.66-3.21.44-.76 1.11-1.29 2.01-1.59.9-.3 2.09-.45 3.57-.45h.87c1.48 0 2.66.15 3.54.45.9.3 1.57.83 2.01 1.59.44.76.66 1.83.66 3.21v3.33c0 1.38-.22 2.45-.66 3.21-.44.76-1.11 1.29-2.01 1.59-.88.3-2.06.45-3.54.45h-.87zm.87-1.26c1 0 1.75-.04 2.25-.12.52-.08 1-.25 1.44-.51.46-.26.78-.65.96-1.17.2-.54.3-1.27.3-2.19v-3.33c0-.92-.1-1.65-.3-2.19-.18-.54-.5-.94-.96-1.2-.44-.26-.91-.42-1.41-.48-.5-.08-1.26-.12-2.28-.12h-.87c-1.04 0-1.81.04-2.31.12-.5.06-.97.22-1.41.48-.46.26-.79.66-.99 1.2-.18.54-.27 1.27-.27 2.19v3.33c0 .92.09 1.65.27 2.19.2.52.53.91.99 1.17.44.26.92.43 1.44.51.52.08 1.28.12 2.28.12h.87zm23.65-3.99c0 1.38-.22 2.45-.66 3.21-.44.76-1.11 1.29-2.01 1.59-.88.3-2.06.45-3.54.45h-5.85v4.56c0 .6-.23.9-.69.9-.38 0-.57-.3-.57-.9v-17.7c0-.6.21-.9.63-.9.42 0 .63.3.63.9v1.47c1.12-1.44 2.78-2.16 4.98-2.16h.87c1.48 0 2.66.15 3.54.45.9.3 1.57.83 2.01 1.59.44.76.66 1.83.66 3.21v3.33zm-1.26-3.33c0-.92-.1-1.65-.3-2.19-.18-.54-.5-.94-.96-1.2-.44-.26-.91-.42-1.41-.48-.5-.08-1.26-.12-2.28-.12h-.87c-1.6 0-2.83.49-3.69 1.47-.86.96-1.29 2.34-1.29 4.14v5.7h5.85c1 0 1.75-.04 2.25-.12.52-.08 1-.25 1.44-.51.46-.26.78-.65.96-1.17.2-.54.3-1.27.3-2.19v-3.33zm18.392-5.25v13.11c0 .62-.21.93-.63.93-.42 0-.63-.31-.63-.93V85.91L191.971 98h-1.47V84.89c0-.62.21-.93.63-.93.42 0 .63.31.63.93v11.49l10.38-12.21h1.38zM213.841 98c-1.48 0-2.67-.15-3.57-.45-.9-.3-1.57-.83-2.01-1.59-.44-.76-.66-1.83-.66-3.21v-3.33c0-1.38.22-2.45.66-3.21.44-.76 1.11-1.29 2.01-1.59.9-.3 2.09-.45 3.57-.45h4.35c1.08 0 1.8.28 2.16.84.38.56.57 1.29.57 2.19 0 .72-.21 1.08-.63 1.08-.42 0-.63-.32-.63-.96 0-.66-.14-1.14-.42-1.44-.26-.3-.72-.45-1.38-.45h-4.02c-1.04 0-1.81.04-2.31.12-.5.06-.97.22-1.41.48-.46.26-.79.66-.99 1.2-.18.54-.27 1.27-.27 2.19v3.33c0 .92.09 1.65.27 2.19.2.52.53.91.99 1.17.44.26.92.43 1.44.51.52.08 1.28.12 2.28.12h4.02c.66 0 1.12-.14 1.38-.42.28-.3.42-.79.42-1.47 0-.3.06-.53.18-.69.14-.18.29-.27.45-.27.18 0 .33.08.45.24.12.14.18.33.18.57 0 1.08-.19 1.9-.57 2.46-.36.56-1.12.84-2.28.84h-4.23zm20.654-13.83c.56 0 .84.21.84.63 0 .42-.28.63-.84.63h-4.62V97.4c0 .54-.21.81-.63.81-.42 0-.63-.27-.63-.81V85.43h-4.65c-.56 0-.84-.21-.84-.63 0-.42.28-.63.84-.63h10.53zm16.546 0v13.11c0 .62-.21.93-.63.93-.42 0-.63-.31-.63-.93V85.91L239.491 98h-1.47V84.89c0-.62.21-.93.63-.93.42 0 .63.31.63.93v11.49l10.38-12.21h1.38zm5.7 7.53v5.7c0 .54-.21.81-.63.81-.42 0-.63-.27-.63-.81V84.8c0-.56.21-.84.63-.84.42 0 .63.28.63.84v5.64h3.33c.38 0 .75-.2 1.11-.6.36-.42.75-.99 1.17-1.71.46-.84.89-1.54 1.29-2.1.42-.56.94-1.04 1.56-1.44.68-.44 1.39-.66 2.13-.66.72 0 1.08.21 1.08.63 0 .42-.31.63-.93.63-.6 0-1.18.22-1.74.66-.56.42-1.03.94-1.41 1.56-1.02 1.76-1.84 2.94-2.46 3.54.9.32 1.68.82 2.34 1.5.66.68 1.09 1.37 1.29 2.07.54 1.62 1.2 2.43 1.98 2.43.62 0 .93.21.93.63 0 .42-.34.63-1.02.63-1.18 0-2.1-.77-2.76-2.31-.38-.88-.76-1.59-1.14-2.13-.36-.54-.91-1.01-1.65-1.41-.82-.44-1.91-.66-3.27-.66h-1.83zm27.932-7.53v13.11c0 .62-.21.93-.63.93-.42 0-.63-.31-.63-.93V85.91L273.123 98h-1.47V84.89c0-.62.21-.93.63-.93.42 0 .63.31.63.93v11.49l10.38-12.21h1.38zM67.848 15.9l11.95 30.15c.1.333.15.75.15 1.25 0 .467-.217.883-.65 1.25-.4.367-.884.55-1.45.55-1.034 0-1.75-.533-2.15-1.6l-3.35-8.65h-13.5l-3.35 8.65c-.467 1.067-1.184 1.6-2.15 1.6a2.254 2.254 0 01-1.5-.55c-.4-.367-.6-.783-.6-1.25 0-.5.05-.917.15-1.25l11.95-30.15h4.5zm-2.3 6.3l-5 12.45h10.1l-5.1-12.45zm42.367 23.95c0 1.667-.7 2.5-2.1 2.5-1.4 0-2.1-.817-2.1-2.45V28.85h-9.9c-1.133 0-1.883.133-2.25.4-.333.267-.5.817-.5 1.65v10.6c0 2.4-.5 4.15-1.5 5.25-.966 1.067-2.55 1.6-4.75 1.6h-.15c-1.866 0-2.8-.7-2.8-2.1h.3v-.05h-.3c0-1.4.884-2.1 2.65-2.1.9 0 1.517-.133 1.85-.4.334-.3.5-.833.5-1.6V31.45c0-1.8.184-3.183.55-4.15.4-.967 1.067-1.65 2-2.05.934-.4 2.267-.6 4-.6h14.5v21.5zm33.567-9.6h-23.1v2.4c0 1.533.2 2.65.6 3.35.433.7 1.233 1.183 2.4 1.45 1.2.233 3.116.35 5.75.35h7.7c.766 0 1.283-.133 1.55-.4.266-.3.4-.867.4-1.7s.183-1.483.55-1.95c.366-.467.883-.7 1.55-.7 1.4.033 2.1.983 2.1 2.85 0 2.067-.484 3.6-1.45 4.6-.934 1-2.384 1.5-4.35 1.5h-8.05c-3.234 0-5.784-.283-7.65-.85-1.867-.6-3.217-1.567-4.05-2.9-.834-1.333-1.25-3.15-1.25-5.45v-5.25c0-2.3.416-4.117 1.25-5.45.833-1.333 2.183-2.283 4.05-2.85 1.866-.6 4.416-.9 7.65-.9h1.45c3.233 0 5.766.3 7.6.9 1.866.567 3.216 1.517 4.05 2.85.833 1.333 1.25 3.15 1.25 5.45v2.7zm-14.35-7.7c-3.6 0-5.95.25-7.05.75-1 .4-1.567 1.317-1.7 2.75h18.85c-.167-1.467-.75-2.4-1.75-2.8-1.234-.467-3.534-.7-6.9-.7h-1.45zm43.918 15.5c.367.467.55.933.55 1.4 0 .6-.283 1.117-.85 1.55-.4.367-.867.55-1.4.55-.6 0-1.117-.283-1.55-.85l-12.25-15.15-2.15 2.25v11.8c0 .667-.183 1.183-.55 1.55-.367.367-.883.55-1.55.55s-1.183-.183-1.55-.55c-.367-.367-.55-.883-.55-1.55V16.2c0-.667.183-1.183.55-1.55.367-.367.883-.55 1.55-.55s1.183.183 1.55.55c.367.367.55.883.55 1.55v11.9l12.75-13.2c.5-.5 1-.75 1.5-.75s.983.233 1.45.7c.5.5.75 1 .75 1.5s-.233.983-.7 1.45l-10.6 11 12.5 15.55zM186.996 48c-2.867 0-5.1-.567-6.7-1.7-1.567-1.167-2.55-2.95-2.95-5.35-.067-.7.083-1.233.45-1.6.366-.4.9-.6 1.6-.6.666 0 1.166.167 1.5.5.333.3.566.817.7 1.55.233 1.133.75 1.917 1.55 2.35.833.433 2.116.65 3.85.65h7.2c1.466 0 2.583-.167 3.35-.5.8-.333 1.366-.883 1.7-1.65.333-.8.5-1.917.5-3.35 0-2.133-.4-3.6-1.2-4.4-.8-.8-2.25-1.2-4.35-1.2h-6.2c-3.134 0-5.467-.767-7-2.3-1.534-1.533-2.3-3.883-2.3-7.05 0-3.133.75-5.45 2.25-6.95 1.533-1.533 3.866-2.3 7-2.3h5.95c5.266 0 8.3 2.2 9.1 6.6.1.7-.034 1.25-.4 1.65-.367.367-.917.55-1.65.55-.667 0-1.167-.167-1.5-.5-.334-.333-.55-.85-.65-1.55-.267-.967-.767-1.633-1.5-2-.734-.367-1.867-.55-3.4-.55h-5.95c-1.367 0-2.417.15-3.15.45-.7.3-1.2.817-1.5 1.55-.267.7-.4 1.717-.4 3.05 0 1.367.15 2.417.45 3.15.3.7.8 1.217 1.5 1.55.733.3 1.783.45 3.15.45h6.2c3.3 0 5.75.8 7.35 2.4 1.6 1.6 2.4 4.067 2.4 7.4 0 3.3-.8 5.75-2.4 7.35-1.6 1.567-4.05 2.35-7.35 2.35h-7.2zm41.619-23.35c2.133 0 3.633.517 4.5 1.55.867 1 1.3 2.75 1.3 5.25v14.8c0 1.6-.7 2.4-2.1 2.4-1.4 0-2.1-.85-2.1-2.55-2 1.467-4.9 2.2-8.7 2.2h-4.65c-1.833 0-3.317-.617-4.45-1.85-1.133-1.267-1.7-2.9-1.7-4.9 0-2.233.417-4 1.25-5.3.867-1.333 2.233-2.3 4.1-2.9 1.9-.6 4.433-.9 7.6-.9h6.55v-1.8c0-.733-.133-1.217-.4-1.45-.233-.233-.75-.35-1.55-.35h-7.05c-2.467 0-4.183.133-5.15.4-.767.233-1.15.65-1.15 1.25 0 1.7-.7 2.55-2.1 2.55-1.4 0-2.1-.85-2.1-2.55 0-2.033.8-3.517 2.4-4.45 1.633-.933 4.217-1.4 7.75-1.4h7.75zm-7.1 19.45c3.467 0 5.783-.667 6.95-2 1.167-1.367 1.75-3.183 1.75-5.45h-6.55c-2.633 0-4.55.133-5.75.4-1.167.233-1.967.7-2.4 1.4-.4.7-.6 1.817-.6 3.35 0 .567.2 1.1.6 1.6.433.467.883.7 1.35.7h4.65z" fill="#fff"/></svg>