<svg width="1920" height="549" viewBox="0 0 1920 549" fill="none" xmlns="http://www.w3.org/2000/svg">
<circle cx="5" cy="151" r="5" fill="#C4C4C4"/>
<circle cx="5" cy="181" r="5" fill="#C4C4C4"/>
<circle cx="5" cy="211" r="5" fill="#C4C4C4"/>
<circle cx="5" cy="241" r="5" fill="#C4C4C4"/>
<circle cx="5" cy="271" r="5" fill="#C4C4C4"/>
<circle cx="5" cy="301" r="5" fill="#C4C4C4"/>
<circle cx="65" cy="151" r="5" fill="#C4C4C4"/>
<circle cx="65" cy="181" r="5" fill="#C4C4C4"/>
<circle cx="65" cy="211" r="5" fill="#C4C4C4"/>
<circle cx="65" cy="241" r="5" fill="#C4C4C4"/>
<circle cx="65" cy="271" r="5" fill="#C4C4C4"/>
<circle cx="65" cy="301" r="5" fill="#C4C4C4"/>
<circle cx="125" cy="151" r="5" fill="#C4C4C4"/>
<circle cx="125" cy="181" r="5" fill="#C4C4C4"/>
<circle cx="125" cy="211" r="5" fill="#C4C4C4"/>
<circle cx="125" cy="241" r="5" fill="#C4C4C4"/>
<circle cx="125" cy="271" r="5" fill="#C4C4C4"/>
<circle cx="125" cy="301" r="5" fill="#C4C4C4"/>
<circle cx="35" cy="151" r="5" fill="#C4C4C4"/>
<circle cx="35" cy="181" r="5" fill="#C4C4C4"/>
<circle cx="35" cy="211" r="5" fill="#C4C4C4"/>
<circle cx="35" cy="241" r="5" fill="#C4C4C4"/>
<circle cx="35" cy="271" r="5" fill="#C4C4C4"/>
<circle cx="35" cy="301" r="5" fill="#C4C4C4"/>
<circle cx="95" cy="151" r="5" fill="#C4C4C4"/>
<circle cx="95" cy="181" r="5" fill="#C4C4C4"/>
<circle cx="95" cy="211" r="5" fill="#C4C4C4"/>
<circle cx="95" cy="241" r="5" fill="#C4C4C4"/>
<circle cx="95" cy="271" r="5" fill="#C4C4C4"/>
<circle cx="95" cy="301" r="5" fill="#C4C4C4"/>
<circle cx="155" cy="151" r="5" fill="#C4C4C4"/>
<circle cx="155" cy="181" r="5" fill="#C4C4C4"/>
<circle cx="155" cy="211" r="5" fill="#C4C4C4"/>
<circle cx="155" cy="241" r="5" fill="#C4C4C4"/>
<circle cx="155" cy="271" r="5" fill="#C4C4C4"/>
<circle cx="155" cy="301" r="5" fill="#C4C4C4"/>
<circle cx="885" cy="166" r="5" fill="#C4C4C4"/>
<circle cx="885" cy="196" r="5" fill="#C4C4C4"/>
<circle cx="885" cy="226" r="5" fill="#C4C4C4"/>
<circle cx="885" cy="256" r="5" fill="#C4C4C4"/>
<circle cx="885" cy="286" r="5" fill="#C4C4C4"/>
<circle cx="885" cy="316" r="5" fill="#C4C4C4"/>
<circle cx="945" cy="166" r="5" fill="#C4C4C4"/>
<circle cx="945" cy="196" r="5" fill="#C4C4C4"/>
<circle cx="945" cy="226" r="5" fill="#C4C4C4"/>
<circle cx="945" cy="256" r="5" fill="#C4C4C4"/>
<circle cx="945" cy="286" r="5" fill="#C4C4C4"/>
<circle cx="945" cy="316" r="5" fill="#C4C4C4"/>
<circle cx="1005" cy="166" r="5" fill="#C4C4C4"/>
<circle cx="1005" cy="196" r="5" fill="#C4C4C4"/>
<circle cx="1005" cy="226" r="5" fill="#C4C4C4"/>
<circle cx="1005" cy="256" r="5" fill="#C4C4C4"/>
<circle cx="1005" cy="286" r="5" fill="#C4C4C4"/>
<circle cx="1005" cy="316" r="5" fill="#C4C4C4"/>
<circle cx="915" cy="166" r="5" fill="#C4C4C4"/>
<circle cx="915" cy="196" r="5" fill="#C4C4C4"/>
<circle cx="915" cy="226" r="5" fill="#C4C4C4"/>
<circle cx="915" cy="256" r="5" fill="#C4C4C4"/>
<circle cx="915" cy="286" r="5" fill="#C4C4C4"/>
<circle cx="915" cy="316" r="5" fill="#C4C4C4"/>
<circle cx="975" cy="166" r="5" fill="#C4C4C4"/>
<circle cx="975" cy="196" r="5" fill="#C4C4C4"/>
<circle cx="975" cy="226" r="5" fill="#C4C4C4"/>
<circle cx="975" cy="256" r="5" fill="#C4C4C4"/>
<circle cx="975" cy="286" r="5" fill="#C4C4C4"/>
<circle cx="975" cy="316" r="5" fill="#C4C4C4"/>
<circle cx="1035" cy="166" r="5" fill="#C4C4C4"/>
<circle cx="1035" cy="196" r="5" fill="#C4C4C4"/>
<circle cx="1035" cy="226" r="5" fill="#C4C4C4"/>
<circle cx="1035" cy="256" r="5" fill="#C4C4C4"/>
<circle cx="1035" cy="286" r="5" fill="#C4C4C4"/>
<circle cx="1035" cy="316" r="5" fill="#C4C4C4"/>
<circle cx="1765" cy="161" r="5" fill="#C4C4C4"/>
<circle cx="1765" cy="191" r="5" fill="#C4C4C4"/>
<circle cx="1765" cy="221" r="5" fill="#C4C4C4"/>
<circle cx="1765" cy="251" r="5" fill="#C4C4C4"/>
<circle cx="1765" cy="281" r="5" fill="#C4C4C4"/>
<circle cx="1765" cy="311" r="5" fill="#C4C4C4"/>
<circle cx="1825" cy="161" r="5" fill="#C4C4C4"/>
<circle cx="1825" cy="191" r="5" fill="#C4C4C4"/>
<circle cx="1825" cy="221" r="5" fill="#C4C4C4"/>
<circle cx="1825" cy="251" r="5" fill="#C4C4C4"/>
<circle cx="1825" cy="281" r="5" fill="#C4C4C4"/>
<circle cx="1825" cy="311" r="5" fill="#C4C4C4"/>
<circle cx="1885" cy="161" r="5" fill="#C4C4C4"/>
<circle cx="1885" cy="191" r="5" fill="#C4C4C4"/>
<circle cx="1885" cy="221" r="5" fill="#C4C4C4"/>
<circle cx="1885" cy="251" r="5" fill="#C4C4C4"/>
<circle cx="1885" cy="281" r="5" fill="#C4C4C4"/>
<circle cx="1885" cy="311" r="5" fill="#C4C4C4"/>
<circle cx="1795" cy="161" r="5" fill="#C4C4C4"/>
<circle cx="1795" cy="191" r="5" fill="#C4C4C4"/>
<circle cx="1795" cy="221" r="5" fill="#C4C4C4"/>
<circle cx="1795" cy="251" r="5" fill="#C4C4C4"/>
<circle cx="1795" cy="281" r="5" fill="#C4C4C4"/>
<circle cx="1795" cy="311" r="5" fill="#C4C4C4"/>
<circle cx="1855" cy="161" r="5" fill="#C4C4C4"/>
<circle cx="1855" cy="191" r="5" fill="#C4C4C4"/>
<circle cx="1855" cy="221" r="5" fill="#C4C4C4"/>
<circle cx="1855" cy="251" r="5" fill="#C4C4C4"/>
<circle cx="1855" cy="281" r="5" fill="#C4C4C4"/>
<circle cx="1855" cy="311" r="5" fill="#C4C4C4"/>
<circle cx="1915" cy="161" r="5" fill="#C4C4C4"/>
<circle cx="1915" cy="191" r="5" fill="#C4C4C4"/>
<circle cx="1915" cy="221" r="5" fill="#C4C4C4"/>
<circle cx="1915" cy="251" r="5" fill="#C4C4C4"/>
<circle cx="1915" cy="281" r="5" fill="#C4C4C4"/>
<circle cx="1915" cy="311" r="5" fill="#C4C4C4"/>
</svg>
