<svg width="287" height="105" viewBox="0 0 287 105" fill="none" xmlns="http://www.w3.org/2000/svg">
<path d="M8.20645 98C6.72645 98 5.53645 97.85 4.63645 97.55C3.73645 97.25 3.06645 96.72 2.62645 95.96C2.18645 95.2 1.96645 94.13 1.96645 92.75V89.42C1.96645 88.04 2.18645 86.97 2.62645 86.21C3.06645 85.45 3.73645 84.92 4.63645 84.62C5.53645 84.32 6.72645 84.17 8.20645 84.17H12.4364H12.5564C13.6364 84.17 14.3564 84.45 14.7164 85.01C15.0964 85.57 15.2864 86.3 15.2864 87.2C15.2864 87.92 15.0764 88.28 14.6564 88.28C14.2364 88.28 14.0264 87.96 14.0264 87.32C14.0264 86.66 13.8864 86.18 13.6064 85.88C13.3464 85.58 12.8864 85.43 12.2264 85.43H8.20645C7.16645 85.43 6.39645 85.47 5.89645 85.55C5.39645 85.61 4.92645 85.77 4.48645 86.03C4.02645 86.29 3.69645 86.69 3.49645 87.23C3.31645 87.77 3.22645 88.5 3.22645 89.42V92.75C3.22645 93.67 3.31645 94.4 3.49645 94.94C3.69645 95.46 4.02645 95.85 4.48645 96.11C4.92645 96.37 5.40645 96.54 5.92645 96.62C6.44645 96.7 7.20645 96.74 8.20645 96.74H12.2264C12.8864 96.74 13.3464 96.6 13.6064 96.32C13.8864 96.02 14.0264 95.53 14.0264 94.85C14.0264 94.55 14.0864 94.32 14.2064 94.16C14.3464 93.98 14.4964 93.89 14.6564 93.89C14.8364 93.89 14.9864 93.97 15.1064 94.13C15.2264 94.27 15.2864 94.46 15.2864 94.7C15.2864 95.78 15.0964 96.6 14.7164 97.16C14.3564 97.72 13.5964 98 12.4364 98H8.20645ZM28.86 84.17C29.42 84.17 29.7 84.38 29.7 84.8C29.7 85.22 29.42 85.43 28.86 85.43H24.24V97.4C24.24 97.94 24.03 98.21 23.61 98.21C23.19 98.21 22.98 97.94 22.98 97.4V85.43H18.33C17.77 85.43 17.49 85.22 17.49 84.8C17.49 84.38 17.77 84.17 18.33 84.17H28.86ZM45.5557 100.76C45.5557 102.04 45.3757 102.92 45.0157 103.4C44.6557 103.9 43.9757 104.15 42.9757 104.15H35.0857H34.9657C33.8857 104.15 33.1557 103.87 32.7757 103.31C32.4157 102.75 32.2357 102.02 32.2357 101.12C32.2357 100.4 32.4457 100.04 32.8657 100.04C33.2857 100.04 33.4957 100.36 33.4957 101C33.4957 101.66 33.6257 102.14 33.8857 102.44C34.1657 102.74 34.6357 102.89 35.2957 102.89H42.7657C43.3857 102.89 43.7957 102.78 43.9957 102.56C44.1957 102.34 44.2957 101.9 44.2957 101.24V95.84C43.2157 97.28 41.5657 98 39.3457 98H38.4757C36.9957 98 35.8057 97.85 34.9057 97.55C34.0057 97.25 33.3357 96.72 32.8957 95.96C32.4557 95.2 32.2357 94.13 32.2357 92.75V84.92C32.2357 84.28 32.4457 83.96 32.8657 83.96C33.2857 83.96 33.4957 84.28 33.4957 84.92V92.75C33.4957 93.67 33.5857 94.4 33.7657 94.94C33.9657 95.46 34.2957 95.85 34.7557 96.11C35.1957 96.37 35.6757 96.54 36.1957 96.62C36.7157 96.7 37.4757 96.74 38.4757 96.74H39.3457C40.9257 96.74 42.1457 96.26 43.0057 95.3C43.8657 94.34 44.2957 92.96 44.2957 91.16V84.92C44.2957 84.28 44.5057 83.96 44.9257 83.96C45.3457 83.96 45.5557 84.28 45.5557 84.92V100.76ZM49.3618 99.86C49.3618 100.46 49.1518 100.76 48.7318 100.76C48.3118 100.76 48.1018 100.46 48.1018 99.86V98.3C48.1018 97.26 48.5618 96.74 49.4818 96.74H49.8718C51.8918 93.34 52.9018 89.15 52.9018 84.17H60.2818V96.74H61.7218C62.6418 96.74 63.1018 97.26 63.1018 98.3V99.86C63.1018 100.46 62.8918 100.76 62.4718 100.76C62.0518 100.76 61.8418 100.46 61.8418 99.86V98H49.3618V99.86ZM59.0218 85.43H54.1318C54.1318 89.61 53.1718 93.38 51.2518 96.74H59.0218V85.43ZM79.0971 84.17V97.28C79.0971 97.9 78.8871 98.21 78.4671 98.21C78.0471 98.21 77.8371 97.9 77.8371 97.28V85.91L67.5471 98H66.0771V84.89C66.0771 84.27 66.2871 83.96 66.7071 83.96C67.1271 83.96 67.3371 84.27 67.3371 84.89V96.38L77.7171 84.17H79.0971ZM86.8974 91.79C85.7974 91.63 84.9974 91.28 84.4974 90.74C84.0174 90.2 83.7774 89.44 83.7774 88.46C83.7774 87.58 83.8674 86.89 84.0474 86.39C84.2474 85.87 84.5174 85.45 84.8574 85.13C85.5574 84.49 87.2674 84.17 89.9874 84.17H94.4574C94.8374 84.17 95.0274 84.48 95.0274 85.1V97.4C95.0274 97.94 94.8174 98.21 94.3974 98.21C93.9774 98.21 93.7674 97.94 93.7674 97.4V91.94H90.1674C89.0874 91.94 88.2674 92.16 87.7074 92.6C87.1474 93.04 86.7174 93.77 86.4174 94.79C86.1374 95.79 85.6674 96.62 85.0074 97.28C84.3674 97.92 83.6874 98.24 82.9674 98.24C82.2474 98.24 81.8874 98.03 81.8874 97.61C81.8874 97.19 82.1774 96.98 82.7574 96.98C83.2974 96.98 83.7774 96.77 84.1974 96.35C84.6374 95.91 84.9374 95.43 85.0974 94.91L85.2474 94.37C85.5074 93.33 86.0574 92.47 86.8974 91.79ZM93.7674 90.68V85.43H89.0574C87.9574 85.43 87.1274 85.49 86.5674 85.61C86.0274 85.73 85.6374 85.98 85.3974 86.36C85.1574 86.72 85.0374 87.29 85.0374 88.07C85.0374 88.85 85.1574 89.42 85.3974 89.78C85.6374 90.14 86.0274 90.38 86.5674 90.5C87.1074 90.62 87.9374 90.68 89.0574 90.68H93.7674ZM107.678 91.7V97.4C107.678 97.94 107.468 98.21 107.048 98.21C106.628 98.21 106.418 97.94 106.418 97.4V84.8C106.418 84.24 106.628 83.96 107.048 83.96C107.468 83.96 107.678 84.24 107.678 84.8V90.44H111.008C111.388 90.44 111.758 90.24 112.118 89.84C112.478 89.42 112.868 88.85 113.288 88.13C113.748 87.29 114.178 86.59 114.578 86.03C114.998 85.47 115.518 84.99 116.138 84.59C116.818 84.15 117.528 83.93 118.268 83.93C118.988 83.93 119.348 84.14 119.348 84.56C119.348 84.98 119.038 85.19 118.418 85.19C117.818 85.19 117.238 85.41 116.678 85.85C116.118 86.27 115.648 86.79 115.268 87.41C114.248 89.17 113.428 90.35 112.808 90.95C113.708 91.27 114.488 91.77 115.148 92.45C115.808 93.13 116.238 93.82 116.438 94.52C116.978 96.14 117.638 96.95 118.418 96.95C119.038 96.95 119.348 97.16 119.348 97.58C119.348 98 119.008 98.21 118.328 98.21C117.148 98.21 116.228 97.44 115.568 95.9C115.188 95.02 114.808 94.31 114.428 93.77C114.068 93.23 113.518 92.76 112.778 92.36C111.958 91.92 110.868 91.7 109.508 91.7H107.678ZM128.441 98C126.961 98 125.771 97.85 124.871 97.55C123.971 97.25 123.301 96.72 122.861 95.96C122.421 95.2 122.201 94.13 122.201 92.75V89.42C122.201 88.04 122.421 86.97 122.861 86.21C123.301 85.45 123.971 84.92 124.871 84.62C125.771 84.32 126.961 84.17 128.441 84.17H129.311C130.791 84.17 131.971 84.32 132.851 84.62C133.751 84.92 134.421 85.45 134.861 86.21C135.301 86.97 135.521 88.04 135.521 89.42V92.75C135.521 94.13 135.301 95.2 134.861 95.96C134.421 96.72 133.751 97.25 132.851 97.55C131.971 97.85 130.791 98 129.311 98H128.441ZM129.311 96.74C130.311 96.74 131.061 96.7 131.561 96.62C132.081 96.54 132.561 96.37 133.001 96.11C133.461 95.85 133.781 95.46 133.961 94.94C134.161 94.4 134.261 93.67 134.261 92.75V89.42C134.261 88.5 134.161 87.77 133.961 87.23C133.781 86.69 133.461 86.29 133.001 86.03C132.561 85.77 132.091 85.61 131.591 85.55C131.091 85.47 130.331 85.43 129.311 85.43H128.441C127.401 85.43 126.631 85.47 126.131 85.55C125.631 85.61 125.161 85.77 124.721 86.03C124.261 86.29 123.931 86.69 123.731 87.23C123.551 87.77 123.461 88.5 123.461 89.42V92.75C123.461 93.67 123.551 94.4 123.731 94.94C123.931 95.46 124.261 95.85 124.721 96.11C125.161 96.37 125.641 96.54 126.161 96.62C126.681 96.7 127.441 96.74 128.441 96.74H129.311ZM151.552 97.28C151.552 97.9 151.342 98.21 150.922 98.21C150.502 98.21 150.292 97.9 150.292 97.28V85.43H143.902C143.242 85.43 142.772 85.58 142.492 85.88C142.232 86.16 142.102 86.66 142.102 87.38V94.28C142.102 95.3 141.992 96.08 141.772 96.62C141.552 97.14 141.222 97.5 140.782 97.7C140.362 97.9 139.782 98 139.042 98C138.422 98 138.112 97.79 138.112 97.37C138.112 96.95 138.432 96.74 139.072 96.74C139.712 96.74 140.162 96.6 140.422 96.32C140.702 96.02 140.842 95.52 140.842 94.82V87.89C140.842 86.49 141.042 85.52 141.442 84.98C141.862 84.44 142.612 84.17 143.692 84.17H151.552V97.28ZM161.869 98C160.389 98 159.199 97.85 158.299 97.55C157.399 97.25 156.729 96.72 156.289 95.96C155.849 95.2 155.629 94.13 155.629 92.75V89.42C155.629 88.04 155.849 86.97 156.289 86.21C156.729 85.45 157.399 84.92 158.299 84.62C159.199 84.32 160.389 84.17 161.869 84.17H162.739C164.219 84.17 165.399 84.32 166.279 84.62C167.179 84.92 167.849 85.45 168.289 86.21C168.729 86.97 168.949 88.04 168.949 89.42V92.75C168.949 94.13 168.729 95.2 168.289 95.96C167.849 96.72 167.179 97.25 166.279 97.55C165.399 97.85 164.219 98 162.739 98H161.869ZM162.739 96.74C163.739 96.74 164.489 96.7 164.989 96.62C165.509 96.54 165.989 96.37 166.429 96.11C166.889 95.85 167.209 95.46 167.389 94.94C167.589 94.4 167.689 93.67 167.689 92.75V89.42C167.689 88.5 167.589 87.77 167.389 87.23C167.209 86.69 166.889 86.29 166.429 86.03C165.989 85.77 165.519 85.61 165.019 85.55C164.519 85.47 163.759 85.43 162.739 85.43H161.869C160.829 85.43 160.059 85.47 159.559 85.55C159.059 85.61 158.589 85.77 158.149 86.03C157.689 86.29 157.359 86.69 157.159 87.23C156.979 87.77 156.889 88.5 156.889 89.42V92.75C156.889 93.67 156.979 94.4 157.159 94.94C157.359 95.46 157.689 95.85 158.149 96.11C158.589 96.37 159.069 96.54 159.589 96.62C160.109 96.7 160.869 96.74 161.869 96.74H162.739ZM186.389 92.75C186.389 94.13 186.169 95.2 185.729 95.96C185.289 96.72 184.619 97.25 183.719 97.55C182.839 97.85 181.659 98 180.179 98H174.329V102.56C174.329 103.16 174.099 103.46 173.639 103.46C173.259 103.46 173.069 103.16 173.069 102.56V84.86C173.069 84.26 173.279 83.96 173.699 83.96C174.119 83.96 174.329 84.26 174.329 84.86V86.33C175.449 84.89 177.109 84.17 179.309 84.17H180.179C181.659 84.17 182.839 84.32 183.719 84.62C184.619 84.92 185.289 85.45 185.729 86.21C186.169 86.97 186.389 88.04 186.389 89.42V92.75ZM185.129 89.42C185.129 88.5 185.029 87.77 184.829 87.23C184.649 86.69 184.329 86.29 183.869 86.03C183.429 85.77 182.959 85.61 182.459 85.55C181.959 85.47 181.199 85.43 180.179 85.43H179.309C177.709 85.43 176.479 85.92 175.619 86.9C174.759 87.86 174.329 89.24 174.329 91.04V96.74H180.179C181.179 96.74 181.929 96.7 182.429 96.62C182.949 96.54 183.429 96.37 183.869 96.11C184.329 95.85 184.649 95.46 184.829 94.94C185.029 94.4 185.129 93.67 185.129 92.75V89.42ZM203.521 84.17V97.28C203.521 97.9 203.311 98.21 202.891 98.21C202.471 98.21 202.261 97.9 202.261 97.28V85.91L191.971 98H190.501V84.89C190.501 84.27 190.711 83.96 191.131 83.96C191.551 83.96 191.761 84.27 191.761 84.89V96.38L202.141 84.17H203.521ZM213.841 98C212.361 98 211.171 97.85 210.271 97.55C209.371 97.25 208.701 96.72 208.261 95.96C207.821 95.2 207.601 94.13 207.601 92.75V89.42C207.601 88.04 207.821 86.97 208.261 86.21C208.701 85.45 209.371 84.92 210.271 84.62C211.171 84.32 212.361 84.17 213.841 84.17H218.071H218.191C219.271 84.17 219.991 84.45 220.351 85.01C220.731 85.57 220.921 86.3 220.921 87.2C220.921 87.92 220.711 88.28 220.291 88.28C219.871 88.28 219.661 87.96 219.661 87.32C219.661 86.66 219.521 86.18 219.241 85.88C218.981 85.58 218.521 85.43 217.861 85.43H213.841C212.801 85.43 212.031 85.47 211.531 85.55C211.031 85.61 210.561 85.77 210.121 86.03C209.661 86.29 209.331 86.69 209.131 87.23C208.951 87.77 208.861 88.5 208.861 89.42V92.75C208.861 93.67 208.951 94.4 209.131 94.94C209.331 95.46 209.661 95.85 210.121 96.11C210.561 96.37 211.041 96.54 211.561 96.62C212.081 96.7 212.841 96.74 213.841 96.74H217.861C218.521 96.74 218.981 96.6 219.241 96.32C219.521 96.02 219.661 95.53 219.661 94.85C219.661 94.55 219.721 94.32 219.841 94.16C219.981 93.98 220.131 93.89 220.291 93.89C220.471 93.89 220.621 93.97 220.741 94.13C220.861 94.27 220.921 94.46 220.921 94.7C220.921 95.78 220.731 96.6 220.351 97.16C219.991 97.72 219.231 98 218.071 98H213.841ZM234.495 84.17C235.055 84.17 235.335 84.38 235.335 84.8C235.335 85.22 235.055 85.43 234.495 85.43H229.875V97.4C229.875 97.94 229.665 98.21 229.245 98.21C228.825 98.21 228.615 97.94 228.615 97.4V85.43H223.965C223.405 85.43 223.125 85.22 223.125 84.8C223.125 84.38 223.405 84.17 223.965 84.17H234.495ZM251.041 84.17V97.28C251.041 97.9 250.831 98.21 250.411 98.21C249.991 98.21 249.781 97.9 249.781 97.28V85.91L239.491 98H238.021V84.89C238.021 84.27 238.231 83.96 238.651 83.96C239.071 83.96 239.281 84.27 239.281 84.89V96.38L249.661 84.17H251.041ZM256.741 91.7V97.4C256.741 97.94 256.531 98.21 256.111 98.21C255.691 98.21 255.481 97.94 255.481 97.4V84.8C255.481 84.24 255.691 83.96 256.111 83.96C256.531 83.96 256.741 84.24 256.741 84.8V90.44H260.071C260.451 90.44 260.821 90.24 261.181 89.84C261.541 89.42 261.931 88.85 262.351 88.13C262.811 87.29 263.241 86.59 263.641 86.03C264.061 85.47 264.581 84.99 265.201 84.59C265.881 84.15 266.591 83.93 267.331 83.93C268.051 83.93 268.411 84.14 268.411 84.56C268.411 84.98 268.101 85.19 267.481 85.19C266.881 85.19 266.301 85.41 265.741 85.85C265.181 86.27 264.711 86.79 264.331 87.41C263.311 89.17 262.491 90.35 261.871 90.95C262.771 91.27 263.551 91.77 264.211 92.45C264.871 93.13 265.301 93.82 265.501 94.52C266.041 96.14 266.701 96.95 267.481 96.95C268.101 96.95 268.411 97.16 268.411 97.58C268.411 98 268.071 98.21 267.391 98.21C266.211 98.21 265.291 97.44 264.631 95.9C264.251 95.02 263.871 94.31 263.491 93.77C263.131 93.23 262.581 92.76 261.841 92.36C261.021 91.92 259.931 91.7 258.571 91.7H256.741ZM284.673 84.17V97.28C284.673 97.9 284.463 98.21 284.043 98.21C283.623 98.21 283.413 97.9 283.413 97.28V85.91L273.123 98H271.653V84.89C271.653 84.27 271.863 83.96 272.283 83.96C272.703 83.96 272.913 84.27 272.913 84.89V96.38L283.293 84.17H284.673Z" fill="white"/>
<path d="M90.4924 45.05C90.6257 45.35 90.6924 45.6833 90.6924 46.05C90.6924 46.85 90.2424 47.4333 89.3424 47.8C89.0424 47.9333 88.7091 48 88.3424 48C87.5424 48 86.9591 47.55 86.5924 46.65L83.8924 40.1H68.3424L65.7424 46.65C65.3757 47.55 64.7924 48 63.9924 48C63.659 48 63.3424 47.9333 63.0424 47.8C62.109 47.4667 61.6424 46.8833 61.6424 46.05C61.6424 45.6833 61.709 45.35 61.8424 45.05L73.7424 15.75C74.2424 14.65 75.0257 14.1 76.0924 14.1H76.1924C77.2924 14.1667 78.0257 14.7167 78.3924 15.75L90.4924 45.05ZM69.9924 35.9H82.1924L75.9424 20.75L69.9924 35.9ZM104.517 48C101.983 48 100.083 47.3833 98.8166 46.15C97.5833 44.8833 96.9666 42.9667 96.9666 40.4V14.9C96.9666 14.2333 97.1499 13.7167 97.5166 13.35C97.8833 12.9833 98.3999 12.8 99.0666 12.8C99.7333 12.8 100.25 12.9833 100.617 13.35C100.983 13.7167 101.167 14.2333 101.167 14.9V40.4C101.167 41.7667 101.383 42.6833 101.817 43.15C102.283 43.5833 103.183 43.8 104.517 43.8C105.95 43.8 106.667 44.5 106.667 45.9C106.7 46.5667 106.533 47.0833 106.167 47.45C105.8 47.8167 105.25 48 104.517 48ZM116.129 37.05V38.25C116.129 39.7167 116.295 40.85 116.629 41.65C116.962 42.4167 117.529 42.9667 118.329 43.3C119.129 43.6333 120.262 43.8 121.729 43.8H125.829C127.529 43.8 128.779 43.65 129.579 43.35C130.412 43.0167 130.962 42.45 131.229 41.65C131.429 40.9833 131.695 40.5 132.029 40.2C132.362 39.8667 132.845 39.7 133.479 39.7C134.112 39.7 134.595 39.85 134.929 40.15C135.295 40.4167 135.479 40.8167 135.479 41.35C135.479 41.5833 135.462 41.75 135.429 41.85C134.695 45.95 131.495 48 125.829 48H121.729C118.395 48 115.929 47.2 114.329 45.6C112.729 44 111.929 41.55 111.929 38.25V32.45C111.929 29.0833 112.729 26.6 114.329 25C115.929 23.4 118.395 22.6167 121.729 22.65H125.829C129.162 22.65 131.629 23.45 133.229 25.05C134.829 26.65 135.629 29.1167 135.629 32.45V34.95C135.629 35.6167 135.445 36.1333 135.079 36.5C134.712 36.8667 134.195 37.05 133.529 37.05H116.129ZM116.129 32.85H131.429V32.45C131.429 30.9833 131.262 29.85 130.929 29.05C130.595 28.25 130.029 27.6833 129.229 27.35C128.429 27.0167 127.295 26.85 125.829 26.85H121.729C120.262 26.8167 119.129 26.9667 118.329 27.3C117.529 27.6333 116.962 28.2 116.629 29C116.295 29.8 116.129 30.95 116.129 32.45V32.85ZM163.268 44.4C163.701 44.8667 163.918 45.3333 163.918 45.8C163.918 46.3333 163.651 46.85 163.118 47.35C162.618 47.75 162.135 47.95 161.668 47.95C161.135 47.95 160.618 47.6833 160.118 47.15L151.368 37.25L149.018 39.25V45.9C149.018 46.5667 148.835 47.0833 148.468 47.45C148.101 47.8167 147.585 48 146.918 48C146.251 48 145.735 47.8167 145.368 47.45C145.001 47.0833 144.818 46.5667 144.818 45.9V14.9C144.818 14.2333 145.001 13.7167 145.368 13.35C145.735 12.9833 146.251 12.8 146.918 12.8C147.585 12.8 148.101 12.9833 148.468 13.35C148.835 13.7167 149.018 14.2333 149.018 14.9V33.7L160.918 23.45C161.385 23.0167 161.851 22.8 162.318 22.8C162.851 22.8 163.368 23.0833 163.868 23.65C164.268 24.15 164.468 24.6333 164.468 25.1C164.468 25.6667 164.201 26.1667 163.668 26.6L154.518 34.5L163.268 44.4ZM176.159 48C171.925 48 169.459 46.25 168.759 42.75C168.725 42.65 168.709 42.5 168.709 42.3C168.709 41.7333 168.892 41.3 169.259 41C169.659 40.6667 170.175 40.5 170.809 40.5C171.442 40.5 171.925 40.6667 172.259 41C172.592 41.3 172.859 41.8167 173.059 42.55C173.259 43.05 173.575 43.3833 174.009 43.55C174.475 43.7167 175.192 43.8 176.159 43.8H184.359C185.659 43.8 186.525 43.5833 186.959 43.15C187.425 42.7167 187.659 41.8333 187.659 40.5C187.659 39.1667 187.425 38.2833 186.959 37.85C186.525 37.4167 185.659 37.2 184.359 37.2H176.309C171.475 37.2 169.059 34.7833 169.059 29.95C169.059 27.4833 169.659 25.65 170.859 24.45C172.059 23.25 173.875 22.65 176.309 22.65H184.109C188.042 22.65 190.359 24.3 191.059 27.6C191.092 27.7 191.109 27.85 191.109 28.05C191.109 28.5833 190.909 29.0167 190.509 29.35C190.142 29.65 189.642 29.8 189.009 29.8C188.375 29.8 187.892 29.65 187.559 29.35C187.259 29.0167 187.009 28.5167 186.809 27.85C186.609 27.45 186.309 27.1833 185.909 27.05C185.509 26.9167 184.909 26.85 184.109 26.85H176.309C175.442 26.85 174.792 26.9333 174.359 27.1C173.925 27.2333 173.625 27.5167 173.459 27.95C173.325 28.3833 173.259 29.05 173.259 29.95C173.259 31.15 173.459 31.9667 173.859 32.4C174.259 32.8 175.075 33 176.309 33H184.359C189.359 33 191.859 35.5 191.859 40.5C191.859 45.5 189.359 48 184.359 48H176.159ZM213.075 22.65C216.409 22.65 218.875 23.45 220.475 25.05C222.075 26.65 222.875 29.1167 222.875 32.45V45.9C222.875 46.5667 222.692 47.0833 222.325 47.45C221.959 47.8167 221.442 48 220.775 48C220.109 48 219.592 47.8167 219.225 47.45C218.859 47.0833 218.675 46.5667 218.675 45.9V44.75C216.909 46.9167 214.309 48 210.875 48H208.075C205.275 48 203.192 47.3167 201.825 45.95C200.459 44.5833 199.775 42.5 199.775 39.7C199.775 36.9 200.442 34.8167 201.775 33.45C203.142 32.0833 205.242 31.4 208.075 31.4H218.625C218.525 29.6667 218.075 28.4833 217.275 27.85C216.475 27.1833 215.075 26.85 213.075 26.85H210.175C208.509 26.85 207.259 26.9667 206.425 27.2C205.625 27.4333 205.059 27.8333 204.725 28.4C204.425 29.1 204.109 29.5833 203.775 29.85C203.442 30.1167 202.975 30.25 202.375 30.25C201.775 30.25 201.275 30.1 200.875 29.8C200.509 29.5 200.325 29.1 200.325 28.6C200.325 28.4 200.342 28.2333 200.375 28.1C200.875 26.2333 201.909 24.8667 203.475 24C205.075 23.1 207.309 22.65 210.175 22.65H213.075ZM218.425 40.35C218.459 40.25 218.492 40.15 218.525 40.05C218.559 39.9167 218.609 39.7833 218.675 39.65V35.6H208.075C206.942 35.6 206.092 35.7167 205.525 35.95C204.959 36.1833 204.559 36.5833 204.325 37.15C204.092 37.7167 203.975 38.5667 203.975 39.7C203.975 40.8333 204.092 41.6833 204.325 42.25C204.559 42.8167 204.959 43.2167 205.525 43.45C206.092 43.6833 206.942 43.8 208.075 43.8H210.875C215.109 43.8 217.625 42.65 218.425 40.35Z" fill="white"/>
</svg>
